<svg width="500" height="500" viewBox="0 0 500 500" fill="none" xmlns="http://www.w3.org/2000/svg">
<path d="M229.66 244.17C225.91 259.97 229.51 366.98 261.55 370.88C261.55 370.88 272.77 373.64 279.55 359.5C279.55 359.5 293.34 410.93 324.35 412.95C341.88 414.09 344.66 391.95 344.66 391.95C354.94 403.56 391.81 418.95 409.54 393.68C424.4 372.53 416.98 337 391.54 313.19C353.31 277.45 272.12 272.19 272.12 272.19L229.66 244.17Z" fill="#E3DACC"/>
<path d="M256.621 60.6C255.173 65.4241 253.461 70.1646 251.491 74.8C249.901 78.47 248.491 81.35 246.911 84.18C245.193 87.2764 243.314 90.2805 241.281 93.18C240.691 94.02 240.061 94.9 239.341 95.8C238.621 96.7 237.861 97.66 237.011 98.66C235.055 100.952 232.9 103.067 230.571 104.98C228.155 106.943 225.521 108.621 222.721 109.98C221.52 110.537 220.288 111.025 219.031 111.44L217.291 112L215.601 112.39C214.556 112.634 213.498 112.811 212.431 112.92C211.456 113.052 210.474 113.123 209.491 113.13C207.572 113.236 205.648 113.109 203.761 112.75C201.736 112.386 199.78 111.711 197.961 110.75C195.904 109.642 194.064 108.172 192.531 106.41C189.221 102.65 187.021 97.41 185.921 90.76C185.452 87.871 185.168 84.9551 185.071 82.03C184.971 79.49 184.971 77.28 185.011 75.28C185.101 71.28 185.311 68.11 185.571 64.95C185.831 61.79 186.191 58.66 186.771 54.79C187.061 52.86 187.421 50.72 187.831 48.41C187.921 47.85 188.031 47.23 188.091 46.78C188.091 46.69 188.091 46.59 188.091 46.64V46.8C188.091 46.91 188.091 47.02 188.091 47.13C188.091 47.24 188.091 47.39 188.091 47.53C188.091 47.67 188.151 47.87 188.191 48.03C188.264 48.2911 188.35 48.5482 188.451 48.8C188.826 49.6823 189.426 50.4511 190.191 51.03C191.082 51.71 192.161 52.0977 193.281 52.14C193.648 52.164 194.018 52.1439 194.381 52.08C194.68 52.0374 194.975 51.9671 195.261 51.87C195.86 51.6743 196.418 51.3729 196.911 50.98C197.22 50.7277 197.502 50.4427 197.751 50.13L197.841 50.03C197.952 49.8901 198.049 49.7394 198.131 49.58L198.001 49.88L196.401 53.74C191.671 65.23 188.861 70.93 185.971 76.54C184.501 79.35 182.971 82.13 180.861 85.54C178.169 89.9302 175.132 94.1 171.781 98.01C168.298 102.161 164.18 105.735 159.581 108.6C156.209 110.684 152.479 112.121 148.581 112.84C144.57 113.546 140.454 113.386 136.511 112.37C133.912 111.728 131.433 110.671 129.171 109.24C126.289 107.38 123.86 104.9 122.061 101.98C120.395 99.2478 119.157 96.2768 118.391 93.17C117.81 90.8698 117.399 88.5302 117.161 86.17C116.805 82.6318 116.701 79.0729 116.851 75.52C116.99 72.0431 117.304 68.5754 117.791 65.13C118.321 61.2 119.161 56.5 120.531 50.46C120.701 49.72 120.861 49.01 121.011 48.31C121.161 47.61 121.301 46.94 121.351 46.61V47C121.351 47 121.351 47.26 121.351 47.4V47.67C121.385 47.8844 121.439 48.0952 121.511 48.3C121.511 48.4 121.581 48.5 121.621 48.6C121.716 48.8385 121.83 49.0692 121.961 49.29C122.347 49.8978 122.863 50.4133 123.471 50.8C123.953 51.1384 124.491 51.3889 125.061 51.54C125.509 51.6503 125.969 51.7073 126.431 51.71C126.86 51.7014 127.286 51.641 127.701 51.53C128.134 51.4046 128.548 51.2194 128.931 50.98C129.114 50.8707 129.288 50.747 129.451 50.61L129.751 50.35L129.961 50.13C130.033 50.0546 130.1 49.9744 130.161 49.89L130.291 49.71C130.323 49.6741 130.35 49.6337 130.371 49.59V49.67L130.231 49.95C129.981 50.47 129.751 50.95 129.521 51.47L126.901 57.33C125.311 60.87 123.981 63.7 122.591 66.52C121.201 69.34 119.771 72.12 117.851 75.52C115.412 79.9187 112.742 84.1847 109.851 88.3C106.887 92.5263 103.54 96.4697 99.8507 100.08C97.2432 102.641 94.3818 104.929 91.3107 106.91C88.0975 108.99 84.5877 110.571 80.9007 111.6C78.4418 112.272 75.9093 112.638 73.3607 112.69C72.6507 112.69 71.9107 112.69 71.1507 112.62L68.7907 112.4C67.9404 112.286 67.0986 112.115 66.2707 111.89L64.9507 111.57L63.6107 111.06C60.3117 109.808 57.3815 107.744 55.0907 105.06C54.1984 103.963 53.3958 102.796 52.6907 101.57C52.3807 101 52.0307 100.45 51.7807 99.89L51.0807 98.28C49.678 94.7553 48.7694 91.0536 48.3807 87.28C47.9785 83.7251 47.8581 80.1439 48.0207 76.57C48.2646 71.512 48.856 66.4768 49.7907 61.5C51.5107 52.29 53.5507 47.38 55.1807 44.82C56.8107 42.26 58.1807 42.1 59.6507 42.44C61.1207 42.78 62.0407 43.76 62.0807 46.72C62.1207 49.68 61.1907 54.64 59.5707 63.27C58.7135 67.8383 58.202 72.4648 58.0407 77.11C57.9444 80.1717 58.1083 83.2361 58.5307 86.27C58.8847 89.061 59.6111 91.792 60.6907 94.39L61.1607 95.39C61.3107 95.75 61.5407 96.03 61.7207 96.39C62.1226 97.0665 62.5703 97.7147 63.0607 98.33C64.2163 99.6376 65.671 100.646 67.3007 101.27L68.0007 101.55C68.2407 101.63 68.5007 101.67 68.7507 101.73L69.4807 101.91C69.717 101.988 69.9624 102.035 70.2107 102.05C71.1692 102.18 72.1339 102.261 73.1007 102.29C74.7561 102.287 76.405 102.082 78.0107 101.68C80.6972 101.008 83.2711 99.9465 85.6507 98.53C88.2214 97.0086 90.6159 95.2076 92.7907 93.16C96.1095 90.0198 99.0984 86.5484 101.711 82.8C105.111 78.01 107.381 74.15 109.241 70.93C111.101 67.71 112.491 65.05 113.861 62.37C115.231 59.69 116.541 57 118.121 53.56L120.791 47.69L121.631 45.9C121.801 45.56 121.941 45.24 122.271 44.68L122.431 44.43L122.511 44.31L122.731 44.02L122.981 43.73L123.111 43.58L123.181 43.52C123.24 43.4554 123.303 43.3952 123.371 43.34C124.002 42.823 124.757 42.4784 125.561 42.34C125.752 42.3026 125.946 42.2792 126.141 42.27C126.475 42.2443 126.812 42.2645 127.141 42.33C127.668 42.423 128.173 42.6129 128.631 42.89C128.97 43.0854 129.28 43.3278 129.551 43.61C129.946 44.02 130.264 44.4976 130.491 45.02C130.574 45.2142 130.641 45.4148 130.691 45.62C130.76 45.8721 130.807 46.1297 130.831 46.39V47.1C130.831 47.37 130.831 47.56 130.781 47.72C130.711 48.32 130.631 48.72 130.561 49.08L130.321 50.2C130.161 50.91 130.001 51.65 129.831 52.41C128.747 57.0284 127.912 61.7018 127.331 66.41C126.973 69.5273 126.793 72.6623 126.791 75.8C126.781 78.8616 126.961 81.9208 127.331 84.96C127.546 86.8063 127.88 88.6368 128.331 90.44C128.854 92.5145 129.669 94.5044 130.751 96.35C131.714 97.948 133.019 99.3138 134.571 100.35C135.842 101.177 137.241 101.788 138.711 102.16C141.166 102.831 143.737 102.971 146.251 102.57C148.942 102.098 151.52 101.125 153.851 99.7C157.579 97.3674 160.917 94.4617 163.741 91.09C166.739 87.5888 169.477 83.8721 171.931 79.97C173.931 76.86 175.381 74.28 176.811 71.67C180.623 64.6482 184.029 57.4129 187.011 50L188.711 45.92L188.961 45.37L189.101 45.05L189.331 44.61C189.331 44.61 189.481 44.35 189.601 44.17L189.801 43.89L189.901 43.76C190.317 43.2623 190.827 42.8515 191.401 42.5512C191.976 42.2509 192.605 42.067 193.251 42.01C193.979 41.9687 194.707 42.0917 195.381 42.37C196.121 42.6805 196.771 43.1722 197.271 43.8C197.447 44.0281 197.601 44.2725 197.731 44.53C197.861 44.7868 197.968 45.0545 198.051 45.33C198.09 45.4406 198.12 45.5544 198.141 45.67C198.178 45.8247 198.205 45.9817 198.221 46.14V46.83C198.22 47.1815 198.193 47.5324 198.141 47.88C198.031 48.73 197.921 49.31 197.811 49.93C197.391 52.27 197.031 54.34 196.691 56.21C196.071 59.92 195.691 62.87 195.331 65.83C194.971 68.79 194.741 71.74 194.591 75.4C194.367 79.9271 194.585 84.4651 195.241 88.95C196.131 94.41 197.871 97.88 199.681 99.81C201.186 101.485 203.253 102.549 205.491 102.8C206.659 102.947 207.842 102.947 209.011 102.8C209.698 102.77 210.383 102.697 211.061 102.58C211.792 102.478 212.517 102.331 213.231 102.14L214.381 101.85L215.571 101.44C216.431 101.133 217.276 100.783 218.101 100.39C220.123 99.3736 222.031 98.1432 223.791 96.72C227.092 93.9321 229.969 90.6779 232.331 87.06C234.046 84.4931 235.599 81.8212 236.981 79.06C238.271 76.48 239.471 73.82 240.841 70.43C242.211 67.04 243.741 62.88 245.481 57.19C248.001 48.78 249.571 44.86 251.121 43.19C252.671 41.52 254.021 42.11 255.441 42.44C256.861 42.77 258.331 42.81 258.931 45.01C259.531 47.21 259.301 51.66 256.621 60.6Z" fill="#141413"/>
<path d="M347.991 348.8C338.421 340 338.991 339.4 329.331 330.66C319.671 321.92 319.881 321.66 310.201 313.03C305.361 308.68 302.771 306.72 300.201 304.72C297.631 302.72 295.071 300.72 290.151 296.49C280.271 288.11 280.151 288.29 270.081 280.13C265.081 276 262.691 273.87 260.341 271.62C257.248 268.611 253.932 265.839 250.421 263.33C247.821 261.42 245.871 260 244.221 258.84L235.461 253.12C233.801 251.98 231.751 250.71 229.041 248.98L222.601 244.88L218.091 242.25C215.291 240.66 212.571 238.95 206.891 235.92L200.221 232.2L195.621 229.68C192.791 228.12 190.011 226.49 184.131 223.77C181.211 222.39 179.011 221.37 177.131 220.56L167.371 216.56L160.271 213.56C151.451 209.82 151.131 207.23 152.271 204.56C153.411 201.89 155.271 200.65 164.211 204.43C165.721 205.07 167.051 205.61 168.211 206.08C169.371 206.55 170.441 207 171.391 207.38C173.311 208.12 174.851 208.68 176.391 209.23C177.931 209.78 179.501 210.34 181.391 211.08C183.281 211.82 185.551 212.87 188.521 214.28C192.527 216.109 196.4 218.217 200.111 220.59C201.511 221.46 202.921 222.33 204.701 223.36C206.481 224.39 208.611 225.68 211.501 227.25C217.311 230.37 220.081 232.19 222.901 233.89L227.471 236.69L234.051 240.93C239.641 244.44 242.441 246.17 245.351 247.76C246.791 248.57 248.241 249.39 250.001 250.46C251.761 251.53 253.771 252.99 256.421 254.95C259.995 257.51 263.408 260.289 266.641 263.27C269.071 265.5 271.641 267.61 276.641 271.8C286.811 280.07 286.691 280.21 296.641 288.67L306.551 297.22C309.021 299.36 311.551 301.46 316.391 305.84C326.131 314.56 326.721 313.91 336.391 322.72C346.061 331.53 346.211 331.35 355.831 340.19C362.931 346.72 360.481 348.5 358.501 350.64C356.521 352.78 355.081 355.31 347.991 348.8Z" fill="#141413"/>
<path d="M283.561 267.25L293.181 268.63C296.011 269.07 298.481 269.63 300.731 270.02L306.911 271.25C308.821 271.62 310.591 272.13 312.381 272.55L317.841 273.89L320.781 274.6L323.941 275.5L331.361 277.55C334.131 278.33 337.191 279.38 340.711 280.46L343.271 281.27L345.641 282.14L349.961 283.74C352.691 284.69 355.021 285.74 357.151 286.67L360.151 287.99C361.151 288.41 362.061 288.81 362.931 289.27L368.021 291.84C369.701 292.64 371.311 293.59 373.021 294.59L375.691 296.13C376.621 296.65 377.581 297.2 378.551 297.87C383.59 301.016 388.405 304.507 392.961 308.32L395.061 310.07C395.741 310.63 396.351 311.24 396.961 311.8L400.401 315L403.301 318L404.641 319.37L405.841 320.73L408.071 323.25C408.791 324.03 409.471 324.96 410.141 325.77C410.811 326.58 411.361 327.46 411.961 328.28L413.581 330.78C415.799 334.417 417.636 338.275 419.061 342.29C421.144 348.112 422.442 354.185 422.921 360.35C423.472 366.583 423.135 372.862 421.921 379C421.081 383.358 419.64 387.578 417.641 391.54C415.542 395.709 412.672 399.442 409.181 402.54C406.845 404.517 404.26 406.177 401.491 407.48C398.228 408.981 394.824 410.156 391.331 410.99C388.16 411.746 384.919 412.165 381.661 412.24C379.039 412.314 376.416 412.16 373.821 411.78C369.824 411.215 365.912 410.164 362.171 408.65C358.823 407.304 355.595 405.678 352.521 403.79C350.871 402.79 349.161 401.66 347.321 400.33C346.411 399.65 345.461 398.94 344.491 398.14C343.997 397.74 343.497 397.32 342.991 396.88L342.221 396.19L341.361 395.38L349.361 391.91C349.361 392.45 349.361 392.76 349.361 393.18C349.361 393.6 349.311 393.95 349.291 394.34C349.221 395.12 349.131 395.92 349.001 396.74C348.738 398.512 348.336 400.261 347.801 401.97C346.679 405.798 344.617 409.284 341.801 412.11C340.523 413.319 339.095 414.358 337.551 415.2C336.186 415.926 334.743 416.496 333.251 416.9C330.785 417.546 328.238 417.829 325.691 417.74C324.581 417.67 323.471 417.64 322.441 417.47L320.791 417.2C320.271 417.12 319.711 416.97 319.181 416.86C314.711 415.753 310.529 413.708 306.911 410.86C304.69 409.204 302.607 407.371 300.681 405.38C298.292 402.946 296.07 400.354 294.031 397.62C291.481 394.214 289.108 390.679 286.921 387.03C285.061 383.94 283.561 381.24 282.221 378.7C280.881 376.16 279.711 373.78 278.531 371.29C277.351 368.8 276.221 366.29 274.961 363.11L283.821 364.4C282.104 366.665 280.157 368.746 278.011 370.61C276.258 372.097 274.322 373.354 272.251 374.35C269.469 375.676 266.411 376.317 263.331 376.22C261.014 376.133 258.733 375.621 256.601 374.71C254.847 373.967 253.189 373.017 251.661 371.88C249.3 370.12 247.17 368.071 245.321 365.78C242.641 362.481 240.312 358.911 238.371 355.13C236.474 351.504 234.765 347.782 233.251 343.98C232.821 342.89 232.381 341.75 231.911 340.54L230.571 336.54C229.571 333.73 228.791 330.54 227.841 326.89C227.591 325.98 227.411 325.09 227.251 324.23L226.791 321.8C226.481 320.18 226.141 318.66 225.921 317.23C225.491 314.36 225.111 311.84 224.771 309.54C224.261 304.95 223.771 301.27 223.531 297.6C222.698 287.823 222.475 278.004 222.861 268.2C223.221 257.37 224.351 251.28 225.571 247.95C226.791 244.62 228.201 244.02 229.641 244.2C231.081 244.38 232.181 245.2 232.701 248.6C233.221 252 233.151 257.99 232.801 268.52C232.417 277.983 232.718 287.461 233.701 296.88C234.001 300.41 234.521 303.88 235.051 308.24C235.391 310.4 235.761 312.77 236.191 315.47C236.391 316.82 236.731 318.21 237.011 319.71L237.471 322.03C237.621 322.83 237.781 323.66 238.011 324.48C238.891 327.79 239.531 330.74 240.441 333.2C240.841 334.46 241.221 335.64 241.581 336.76L242.781 339.97C244.351 343.97 245.711 347.16 247.211 350.21C248.755 353.454 250.639 356.524 252.831 359.37C254.138 361.07 255.657 362.595 257.351 363.91C259.129 365.388 261.317 366.288 263.621 366.49C266.811 366.67 269.621 364.94 271.701 363.25C273.332 361.83 274.822 360.256 276.151 358.55L276.211 358.47C276.981 357.529 278.093 356.93 279.303 356.804C280.513 356.679 281.723 357.037 282.671 357.8C283.289 358.304 283.768 358.958 284.061 359.7C285.061 362.38 286.201 364.9 287.271 367.23C288.341 369.56 289.441 371.85 290.671 374.23C291.901 376.61 293.291 379.18 295.011 382.07C297.003 385.424 299.17 388.672 301.501 391.8C303.293 394.222 305.258 396.511 307.381 398.65C308.979 400.296 310.719 401.798 312.581 403.14C314.024 404.194 315.564 405.108 317.181 405.87C318.529 406.477 319.941 406.929 321.391 407.22L322.391 407.41L323.531 407.53C324.311 407.64 325.061 407.61 325.851 407.66C327.387 407.665 328.918 407.463 330.401 407.06C331.146 406.847 331.867 406.555 332.551 406.19C333.271 405.778 333.942 405.285 334.551 404.72C336.113 403.1 337.262 401.128 337.901 398.97C338.318 397.665 338.622 396.327 338.811 394.97C338.901 394.35 338.961 393.79 339.001 393.28C339.001 393.04 339.001 392.81 339.001 392.59C339.001 392.37 339.001 392.28 339.001 392.14V391.9C339.044 390.816 339.398 389.767 340.021 388.878C340.643 387.99 341.508 387.299 342.513 386.888C343.517 386.477 344.618 386.363 345.685 386.56C346.752 386.757 347.74 387.257 348.531 388L349.021 388.46L349.621 388.99C350.021 389.34 350.421 389.68 350.831 389.99C351.631 390.65 352.431 391.25 353.191 391.82C354.731 392.94 356.191 393.9 357.591 394.73C360.166 396.289 362.869 397.627 365.671 398.73C368.692 399.94 371.848 400.779 375.071 401.23C379.613 401.866 384.232 401.662 388.701 400.63C391.502 399.978 394.232 399.05 396.851 397.86C398.757 396.996 400.542 395.887 402.161 394.56C404.674 392.391 406.757 389.769 408.301 386.83C409.931 383.751 411.113 380.454 411.811 377.04C412.904 371.876 413.241 366.581 412.811 361.32C412.409 355.995 411.331 350.742 409.601 345.69C408.45 342.265 406.963 338.962 405.161 335.83L403.861 333.71L402.421 331.62C401.871 330.94 401.421 330.25 400.751 329.5C400.081 328.75 399.431 327.98 398.751 327.16C397.381 325.48 395.661 323.84 393.821 321.86C392.821 320.91 391.821 319.96 390.691 318.91C390.131 318.39 389.571 317.84 388.961 317.31L387.021 315.7C382.815 312.159 378.327 308.969 373.601 306.16C373.131 305.87 372.691 305.58 372.241 305.32L370.901 304.6L368.361 303.25C366.721 302.38 365.201 301.54 363.591 300.85L358.721 298.62C357.891 298.21 357.001 297.85 356.071 297.49L353.161 296.31C351.161 295.49 348.921 294.53 346.311 293.66L342.191 292.17L339.931 291.35C339.151 291.08 338.331 290.84 337.491 290.57C334.111 289.57 331.191 288.57 328.491 287.82L321.311 285.96L318.251 285.16L310.071 283.44C308.331 283.09 306.611 282.66 304.741 282.36L298.741 281.36C296.551 281 294.151 280.52 291.401 280.12L282.031 278.8L278.371 278.25L275.191 277.8C273.191 277.5 271.571 277.2 270.191 276.89C268.212 276.533 266.3 275.875 264.521 274.94C262.311 273.59 262.761 272.16 262.901 270.71C263.041 269.26 262.831 267.78 265.281 266.96C267.236 266.438 269.258 266.212 271.281 266.29C272.751 266.29 274.471 266.35 276.501 266.49C277.501 266.56 278.611 266.62 279.781 266.75L283.561 267.25Z" fill="#141413"/>
<path d="M386.911 112.88C388.928 111.958 391.09 111.393 393.301 111.21L394.861 111.11C395.371 111.11 395.861 111.11 396.371 111.11C397.337 111.157 398.299 111.267 399.251 111.44C402.564 112.059 405.741 113.265 408.631 115C411.027 116.417 413.273 118.075 415.331 119.95C416.331 120.79 417.131 121.69 417.991 122.53C418.851 123.37 419.581 124.26 420.291 125.11C422.829 128.177 425.136 131.43 427.191 134.84C428.191 136.37 429.001 137.91 429.871 139.4C430.741 140.89 431.501 142.4 432.251 143.91C435.475 150.406 438.32 157.084 440.771 163.91C442.171 167.82 443.641 172.14 445.101 177.1C446.561 182.06 448.101 187.64 449.591 194.1C449.951 195.72 450.351 197.24 450.641 198.8C450.931 200.36 451.231 201.8 451.511 203.3C452.051 206.2 452.401 208.91 452.811 211.48C453.221 214.05 453.421 216.48 453.701 218.72C453.981 220.96 454.131 223.15 454.341 225.19C455.061 233.37 455.451 239.9 455.751 246.42C456.351 259.42 456.751 272.51 457.061 298.42C457.151 304.91 457.241 310.58 457.351 315.62C457.461 320.66 457.621 325.18 457.681 329.26C457.801 337.42 457.821 343.92 457.851 350.42C457.851 363.42 457.851 376.42 457.241 402.36C456.651 426.42 456.331 439.36 456.061 450.47C456.027 451.922 455.435 453.304 454.406 454.329C453.377 455.354 451.992 455.942 450.541 455.97H450.451C435.511 456.25 422.621 456.51 394.781 456.86C342.891 457.52 342.881 456.31 290.991 456.97L266.931 457.31C265.715 457.33 264.539 456.875 263.652 456.042C262.765 455.21 262.238 454.065 262.181 452.85C261.231 432.33 260.731 421.57 259.871 402.92L264.371 407.65L259.911 407.21C258.041 406.96 255.791 406.71 253.221 406.26C246.78 405.215 240.428 403.68 234.221 401.67C228.491 399.832 222.925 397.517 217.581 394.75C215.181 393.6 213.061 392.25 211.001 391.09C208.941 389.93 207.141 388.57 205.351 387.41C199.313 383.13 193.76 378.204 188.791 372.72C187.661 371.43 186.491 370.22 185.381 368.84C184.271 367.46 183.131 366.04 182.111 364.5C179.848 361.258 177.813 357.863 176.021 354.34C171.275 344.769 167.66 334.678 165.251 324.27C163.671 317.78 162.621 312.06 161.801 306.95C160.981 301.84 160.451 297.31 160.031 293.21C159.191 284.99 158.841 278.4 158.641 271.8C158.541 268.51 158.491 265.21 158.511 261.7C158.511 259.94 158.511 258.13 158.591 256.22C158.671 254.31 158.671 252.46 158.711 250.44C158.731 245.596 159.21 240.764 160.141 236.01C160.774 232.893 161.873 229.889 163.401 227.1C164.355 225.417 165.544 223.878 166.931 222.53C168.495 221.023 170.34 219.837 172.361 219.04C174.297 218.278 176.343 217.832 178.421 217.72C180.219 217.628 182.021 217.719 183.801 217.99C187.029 218.417 190.156 219.409 193.041 220.92C195.718 222.367 198.073 224.343 199.961 226.73C201.567 228.798 202.858 231.093 203.791 233.54C205.218 237.464 206.1 241.566 206.411 245.73C206.741 249.4 206.791 252.78 206.861 256.01C206.931 259.24 207.021 262.49 207.101 265.94C207.181 269.39 207.281 272.94 207.481 276.94C207.681 280.94 207.981 285.24 208.611 290.05C208.931 292.46 209.341 294.97 209.911 297.58C210.061 298.23 210.211 298.89 210.371 299.58C210.531 300.27 210.731 300.89 210.921 301.58C211.111 302.27 211.321 302.91 211.551 303.58C211.753 304.262 212 304.93 212.291 305.58C213.776 309.02 215.772 312.216 218.211 315.06C220.212 317.457 222.356 319.731 224.631 321.87C228.631 325.7 231.831 328.31 234.021 330.31C238.451 334.31 239.021 335.88 238.301 337.19C237.581 338.5 235.821 339 230.091 336.3C225.987 334.253 222.129 331.747 218.591 328.83C215.789 326.581 213.183 324.099 210.801 321.41L208.731 318.95L206.731 316.14C205.302 313.992 204.083 311.711 203.091 309.33C202.712 308.516 202.378 307.681 202.091 306.83C201.811 306.02 201.541 305.21 201.331 304.42C201.121 303.63 200.891 302.85 200.681 302.08C200.471 301.31 200.331 300.56 200.151 299.82C199.501 296.82 199.041 294.07 198.691 291.46C197.991 286.23 197.691 281.67 197.421 277.54C197.151 273.41 197.071 269.72 196.961 266.25C196.851 262.78 196.741 259.57 196.631 256.32C196.521 253.07 196.441 249.95 196.131 246.79C195.874 243.596 195.202 240.45 194.131 237.43C193.076 234.378 190.942 231.817 188.131 230.23C186.34 229.292 184.396 228.683 182.391 228.43C181.312 228.263 180.221 228.193 179.131 228.22C178.172 228.273 177.226 228.461 176.321 228.78C174.687 229.465 173.339 230.69 172.501 232.25C172.002 233.145 171.574 234.078 171.221 235.04C170.868 236.056 170.571 237.091 170.331 238.14C169.516 242.211 169.081 246.349 169.031 250.5C168.971 252.5 168.921 254.5 168.871 256.33C168.821 258.16 168.751 259.84 168.731 261.53C168.671 264.9 168.731 268.09 168.731 271.28C168.841 277.65 169.091 284.04 169.831 291.98C170.201 295.98 170.701 300.3 171.451 305.21C172.201 310.12 173.211 315.59 174.691 321.74C176.908 331.418 180.219 340.811 184.561 349.74C186.122 352.883 187.9 355.914 189.881 358.81C191.629 361.384 193.571 363.821 195.691 366.1C200.139 371.114 205.137 375.613 210.591 379.51C212.201 380.58 213.871 381.72 215.691 382.88L218.561 384.55L220.061 385.43L221.651 386.24C226.514 388.751 231.578 390.852 236.791 392.52C246.006 395.512 255.548 397.382 265.211 398.09C266.311 398.184 267.34 398.672 268.109 399.464C268.879 400.255 269.337 401.298 269.401 402.4V402.49C270.401 421.38 271.321 431.4 272.401 452.4L266.791 447.08C273.351 446.93 281.071 446.79 290.501 446.67C342.391 446.01 342.401 446.93 394.291 446.27L450.291 445.61L445.671 450.15C446.021 439.15 446.431 426.33 447.021 402.5C447.661 376.57 447.831 363.61 447.971 350.66C448.021 344.19 448.091 337.71 448.031 329.66C447.971 321.61 447.731 311.84 447.521 298.88C447.181 272.93 446.521 260.03 445.681 247.16C445.241 240.73 444.681 234.32 443.911 226.35C443.704 224.35 443.477 222.257 443.231 220.07C442.984 217.883 442.684 215.55 442.331 213.07C441.921 210.64 441.571 208.07 441.061 205.31C440.551 202.55 440.011 199.74 439.241 196.63C437.801 190.43 436.361 185.05 434.901 180.32C433.441 175.59 432.031 171.47 430.671 167.77C428.299 161.4 425.53 155.184 422.381 149.16C421.671 147.78 420.891 146.44 420.131 145.06C419.371 143.68 418.541 142.33 417.631 140.98C415.804 138.059 413.776 135.269 411.561 132.63C409.083 129.649 406.13 127.098 402.821 125.08C399.341 123.01 395.031 121.92 391.691 123.47C390.451 124.013 389.353 124.835 388.481 125.87C388.301 126.13 388.081 126.35 387.911 126.6C387.741 126.85 387.601 127.12 387.431 127.36C387.153 127.888 386.915 128.436 386.721 129C386.005 131.191 385.733 133.503 385.921 135.8C386.111 140.1 386.921 143.17 387.031 145.18C387.551 149.23 386.031 149.4 384.681 149.99C383.331 150.58 382.301 151.8 379.571 148.09C378.74 146.819 378.018 145.481 377.411 144.09C377.061 143.19 376.651 142.2 376.281 141.04C376.131 140.45 375.961 139.83 375.781 139.18C375.701 138.85 375.621 138.51 375.531 138.18C375.441 137.85 375.411 137.45 375.341 137.08C374.606 133.266 374.781 129.333 375.851 125.6C376.657 122.803 378.065 120.215 379.975 118.018C381.886 115.821 384.253 114.067 386.911 112.88Z" fill="#141413"/>
<path d="M354.531 206.3C354.151 204.59 353.801 202.98 353.471 201.47C353.141 199.96 352.731 198.56 352.401 197.24C351.771 194.57 351.081 192.24 350.491 190.17C349.901 188.1 349.331 186.17 348.771 184.42C348.491 183.53 348.231 182.67 347.961 181.83C347.691 180.99 347.391 180.17 347.101 179.35C345.971 176.05 344.731 172.79 342.971 168.82C342.511 167.82 342.041 166.82 341.541 165.69C341.041 164.56 340.421 163.47 339.801 162.26C339.181 161.05 338.501 159.79 337.731 158.46L336.561 156.39C336.131 155.7 335.691 154.98 335.241 154.24C332.313 149.551 329.152 145.012 325.771 140.64L323.791 138.15C323.181 137.4 322.611 136.68 322.021 135.99C320.851 134.63 319.721 133.37 318.541 132.17C316.005 129.552 313.256 127.15 310.321 124.99C308.464 123.631 306.516 122.401 304.491 121.31C302.041 119.962 299.43 118.93 296.721 118.24C295.396 117.9 294.038 117.709 292.671 117.67C291.578 117.628 290.484 117.736 289.421 117.99C287.805 118.371 286.325 119.187 285.141 120.35C284.167 121.347 283.405 122.531 282.901 123.83C282.489 124.939 282.306 126.119 282.361 127.3C282.461 129.71 283.361 132.49 285.211 136C287.878 140.697 290.887 145.192 294.211 149.45C298.471 155.17 301.841 159.58 304.461 163.54C306.729 167.012 308.796 170.611 310.651 174.32C312.311 177.7 313.881 181.1 315.651 185.41C317.421 189.72 319.301 194.93 321.481 201.99C322.311 204.73 323.001 207.15 323.551 209.34C323.88 210.621 323.764 211.976 323.221 213.183C322.679 214.389 321.742 215.375 320.565 215.979C319.388 216.583 318.04 216.768 316.744 216.505C315.447 216.242 314.279 215.545 313.431 214.53L313.331 214.41L308.921 209.18C307.491 207.72 306.201 206.39 305.011 205.18C304.433 204.576 303.822 204.005 303.181 203.47L301.401 201.87C300.821 201.35 300.261 200.82 299.681 200.32L297.841 198.91L295.971 197.47C295.333 196.951 294.665 196.47 293.971 196.03C292.541 195.13 291.031 194.12 289.301 193.1C287.571 192.08 285.601 191.1 283.351 190.1C281.101 189.1 278.571 187.98 275.601 187.1L273.231 186.29C272.471 186.02 271.701 185.86 270.971 185.65L266.791 184.41L263.051 183.64L261.341 183.29C260.781 183.19 260.231 183.12 259.701 183.04C256.004 182.454 252.279 182.064 248.541 181.87C246.811 181.87 245.091 181.69 243.251 181.71H240.411C239.411 181.71 238.411 181.71 237.321 181.79L233.911 181.96C232.721 182.03 231.461 182.19 230.121 182.3C227.451 182.53 224.421 182.95 221.031 183.54C215.751 184.41 210.579 185.838 205.601 187.8C202.425 189.018 199.449 190.703 196.771 192.8C195.682 193.668 194.714 194.677 193.891 195.8C193.084 196.876 192.53 198.12 192.271 199.44C192.127 200.167 192.076 200.91 192.121 201.65C192.195 202.561 192.376 203.461 192.661 204.33C192.988 205.398 193.438 206.425 194.001 207.39C194.538 208.379 195.246 209.266 196.091 210.01C197.816 211.378 199.899 212.219 202.091 212.43C204.284 212.685 206.495 212.759 208.701 212.65C212.931 212.47 216.521 212.09 220.171 211.82C223.821 211.55 227.571 211.29 232.351 211.34C233.551 211.34 234.811 211.4 236.151 211.47L238.221 211.62L240.331 211.84C243.231 212.11 246.481 212.56 250.191 213.19C256.138 214.208 261.975 215.792 267.621 217.92C271.609 219.403 275.424 221.314 279.001 223.62C282.714 225.981 286.06 228.876 288.931 232.21C289.721 233.21 290.561 234.29 291.401 235.46L292.571 237.34C293 237.981 293.387 238.649 293.731 239.34C295.387 242.469 296.727 245.755 297.731 249.15C299.052 253.622 299.699 258.267 299.651 262.93C299.65 265.591 299.252 268.236 298.471 270.78C297.231 274.31 295.701 274.84 294.301 274.55C292.901 274.26 291.891 273.43 291.301 270.22C291.001 268.62 290.791 266.41 290.411 263.41C289.966 259.54 289.214 255.711 288.161 251.96C287.342 249.189 286.243 246.508 284.881 243.96C284.618 243.42 284.314 242.902 283.971 242.41L283.081 241C282.441 240.13 281.781 239.34 281.191 238.57C278.916 236.014 276.266 233.819 273.331 232.06C270.33 230.216 267.142 228.694 263.821 227.52C258.82 225.698 253.666 224.326 248.421 223.42C245.051 222.85 242.071 222.42 239.421 222.15L237.421 221.94L235.651 221.78C234.511 221.7 233.421 221.64 232.381 221.62C228.191 221.5 224.731 221.62 221.191 221.83C217.651 222.04 214.051 222.31 209.291 222.47C206.496 222.579 203.698 222.469 200.921 222.14C199.099 221.885 197.307 221.449 195.571 220.84C193.452 220.083 191.485 218.955 189.761 217.51C188.08 216.063 186.657 214.342 185.551 212.42C185.071 211.6 184.634 210.755 184.241 209.89C183.911 209.03 183.551 208.25 183.311 207.4C182.777 205.78 182.441 204.101 182.311 202.4C182.195 200.821 182.289 199.234 182.591 197.68C183.102 194.995 184.198 192.455 185.801 190.24C187.116 188.423 188.67 186.792 190.421 185.39C193.872 182.727 197.705 180.599 201.791 179.08C207.403 176.892 213.223 175.281 219.161 174.27C222.861 173.62 226.071 173.17 228.981 172.88L233.101 172.46L236.801 172.22C241.471 171.95 245.221 171.91 248.981 171.99C250.871 171.99 252.741 172.17 254.741 172.28C256.741 172.39 258.841 172.68 261.191 172.97L262.991 173.21L264.881 173.57L268.991 174.38C270.431 174.71 271.941 175.14 273.561 175.57C274.371 175.79 275.211 175.99 276.061 176.26L278.691 177.15C281.596 178.117 284.45 179.232 287.241 180.49C288.521 180.98 289.651 181.64 290.761 182.18L293.891 183.8C297.288 185.709 300.549 187.851 303.651 190.21L305.791 191.8C306.491 192.33 307.131 192.95 307.791 193.53C309.121 194.72 310.561 195.88 311.991 197.26L316.531 201.87C318.081 203.64 319.731 205.63 321.621 207.87L313.271 212.01C312.961 210.73 312.271 208.14 311.391 205.33C308.725 196.346 305.382 187.578 301.391 179.1C300.621 177.56 299.871 175.99 298.981 174.41L297.601 171.95L296.011 169.39C293.681 165.78 290.501 161.56 286.151 155.74C282.493 151.03 279.22 146.034 276.361 140.8C274.131 136.41 272.661 132.27 272.561 127.56C272.524 125.101 272.969 122.658 273.871 120.37C274.895 117.842 276.423 115.549 278.361 113.63C280.777 111.249 283.8 109.575 287.101 108.79C290.963 107.939 294.97 108.008 298.801 108.99C302.296 109.849 305.674 111.128 308.861 112.8C311.281 114.068 313.619 115.488 315.861 117.05C319.301 119.442 322.554 122.093 325.591 124.98C326.991 126.3 328.341 127.68 329.711 129.19C330.411 129.93 331.091 130.74 331.811 131.57L333.911 134.13C337.639 138.722 341.072 143.545 344.191 148.57L345.621 150.89L346.901 153.11C347.731 154.55 348.501 155.89 349.161 157.2L351.081 160.87C351.651 162.04 352.181 163.15 352.691 164.21C354.691 168.44 356.141 171.89 357.471 175.37C357.811 176.24 358.151 177.11 358.471 178C358.791 178.89 359.101 179.8 359.471 180.73C360.121 182.6 360.831 184.58 361.471 186.81C362.111 189.04 362.921 191.48 363.611 194.29C363.984 195.69 364.374 197.18 364.781 198.76C365.131 200.36 365.511 202.05 365.911 203.86C366.541 206.52 366.911 208.86 367.181 210.86C367.457 212.593 367.644 214.338 367.741 216.09C367.918 218.139 367.78 220.203 367.331 222.21C366.591 224.71 365.081 224.58 363.641 224.78C362.201 224.98 360.811 225.48 359.401 223.36C358.401 221.642 357.673 219.78 357.241 217.84C356.881 216.46 356.411 214.84 355.991 212.95C355.571 211.06 355.091 208.8 354.531 206.3Z" fill="#141413"/>
<path d="M338.981 160.8C336.521 156.46 335.291 154.21 334.101 151.96C332.504 148.953 330.717 146.05 328.751 143.27L328.521 142.95L328.461 142.86C328.381 142.74 328.291 142.6 328.221 142.47C327.771 141.62 327.531 141.08 327.221 140.47C326.911 139.86 326.731 139.31 326.541 138.77C326.151 137.69 325.851 136.77 325.621 135.83C325.511 135.37 325.401 134.95 325.301 134.53C325.201 134.11 325.151 133.7 325.071 133.3C324.911 132.52 324.851 131.73 324.771 130.96C324.601 129.234 324.601 127.496 324.771 125.77C324.771 125.27 324.931 124.72 325.021 124.16C325.108 123.551 325.241 122.949 325.421 122.36C325.611 121.73 325.811 121.06 326.051 120.36C326.291 119.66 326.701 118.95 327.051 118.19C327.447 117.478 327.881 116.787 328.351 116.12C328.739 115.521 329.18 114.959 329.671 114.44L330.941 113.04L332.241 111.92C332.989 111.256 333.803 110.669 334.671 110.17C335.044 109.912 335.431 109.675 335.831 109.46L337.031 108.9L338.251 108.36C338.671 108.21 339.101 108.09 339.541 107.96L340.931 107.58C341.411 107.46 341.931 107.42 342.441 107.34C342.951 107.26 343.531 107.19 344.121 107.15H346.971L347.971 107.28C348.681 107.39 349.461 107.45 350.241 107.64L352.421 108.19C353.111 108.35 353.701 108.61 354.281 108.79C354.861 108.97 355.411 109.18 355.911 109.38L357.301 110L358.551 110.56C358.951 110.75 359.301 110.95 359.661 111.14C360.371 111.53 361.051 111.87 361.661 112.26C363.05 113.092 364.386 114.011 365.661 115.01C366.494 115.632 367.291 116.3 368.051 117.01C369.034 117.871 369.969 118.785 370.851 119.75C371.341 120.28 371.851 120.75 372.241 121.27C372.631 121.79 373.011 122.27 373.371 122.7C373.731 123.13 374.031 123.59 374.371 123.99C374.711 124.39 374.881 124.74 375.111 125.1C376.021 126.49 376.701 127.65 377.361 128.84L379.531 132.63C380.411 134.07 381.451 135.79 382.901 138.04C384.351 140.29 385.391 142.04 386.281 143.44L388.531 147.18C389.251 148.32 389.891 149.5 390.691 150.97C391.091 151.71 391.531 152.52 392.021 153.45C392.511 154.38 393.021 155.45 393.571 156.66C397.981 166.44 398.101 166.41 401.671 176.52C402.901 179.886 403.942 183.318 404.791 186.8L405.281 188.8C405.431 189.49 405.591 190.23 405.761 191.04C406.121 192.67 406.571 194.62 407.221 197.21C408.311 202.42 409.011 205 409.611 207.6C409.891 208.9 410.171 210.2 410.491 211.83C410.811 213.46 411.231 215.43 411.551 218.07C412.551 225.88 410.431 227.16 407.551 227.47C404.671 227.78 402.671 226.97 401.711 219.47C401.236 216.092 400.527 212.75 399.591 209.47C398.901 207.01 398.101 204.58 397.061 199.6C396.451 197.14 396.061 195.27 395.771 193.71C395.631 192.92 395.521 192.21 395.421 191.54C395.321 190.87 395.191 190.24 395.071 189.62C394.559 186.253 393.732 182.942 392.601 179.73C389.221 170.14 389.411 170.05 385.231 160.79C384.691 159.64 384.231 158.63 383.741 157.79C383.251 156.95 382.811 156.17 382.401 155.5C381.561 154.14 380.871 153.07 380.101 152.06C379.331 151.05 378.601 150.06 377.731 148.69C376.861 147.32 375.791 145.81 374.441 143.69C373.091 141.57 372.091 139.96 371.251 138.62C370.411 137.28 369.791 136.17 369.131 135.08C368.471 133.99 367.821 132.89 366.931 131.57L366.211 130.52L365.421 129.52L364.521 128.36C364.191 127.96 363.801 127.58 363.401 127.15C363.001 126.72 362.641 126.31 362.271 125.95L361.201 124.95C360.871 124.64 360.571 124.34 360.261 124.08L359.371 123.37C358.408 122.583 357.407 121.846 356.371 121.16C355.891 120.85 355.371 120.59 354.881 120.28L354.081 119.81L353.191 119.39L352.191 118.92C351.841 118.76 351.461 118.65 351.061 118.5C350.661 118.35 350.241 118.17 349.791 118.06L348.341 117.69C347.868 117.589 347.391 117.512 346.911 117.46L346.251 117.36C346.051 117.36 345.851 117.36 345.651 117.36H344.561C344.246 117.373 343.932 117.403 343.621 117.45C343.321 117.45 343.041 117.5 342.771 117.54L342.041 117.73L341.351 117.89L340.731 118.16C340.3 118.297 339.889 118.492 339.511 118.74C339.068 118.973 338.652 119.255 338.271 119.58C338.051 119.76 337.831 119.94 337.581 120.12L336.921 120.86C336.389 121.428 335.929 122.06 335.551 122.74C334.901 123.976 334.538 125.344 334.491 126.74C334.473 127.768 334.574 128.795 334.791 129.8C334.911 130.3 335.001 130.8 335.181 131.31C335.251 131.57 335.331 131.84 335.411 132.12C335.491 132.4 335.611 132.69 335.711 133C335.911 133.61 336.171 134.28 336.471 135C336.621 135.38 336.791 135.77 336.981 136.18C337.061 136.39 337.171 136.58 337.261 136.79C337.351 137 337.431 137.12 337.521 137.3L337.181 136.76L337.411 137.09C340.481 141.5 341.961 143.69 343.461 145.91C344.961 148.13 346.461 150.34 349.141 155.08C351.141 158.6 351.281 160.75 350.661 162.02C350.041 163.29 348.661 163.78 347.321 164.39C345.981 165 344.721 165.68 343.401 165.39C342.081 165.1 340.791 164.05 338.981 160.8Z" fill="#141413"/>
<path d="M125.541 205.92C122.848 204.372 120.492 202.302 118.611 199.83C117.392 198.221 116.359 196.48 115.531 194.64C114.745 192.897 114.077 191.103 113.531 189.27C112.762 186.718 112.157 184.119 111.721 181.49C111.296 178.949 111.025 176.384 110.911 173.81C110.811 171.81 110.811 170.2 110.841 168.62C110.911 165.44 111.021 162.28 111.581 156.06C112.141 149.84 112.511 146.75 112.681 143.84C112.681 143.51 112.681 143.18 112.681 142.84C112.687 142.727 112.687 142.613 112.681 142.5C112.681 142.5 112.681 142.5 112.681 142.57C112.666 142.673 112.666 142.777 112.681 142.88V143.46L112.741 143.68C112.808 143.923 112.895 144.161 113.001 144.39L113.081 144.56C113.081 144.63 113.231 144.84 113.321 144.98C113.511 145.28 113.729 145.561 113.971 145.82C114.776 146.646 115.83 147.187 116.971 147.36C117.381 147.426 117.797 147.443 118.211 147.41C118.514 147.38 118.815 147.327 119.111 147.25C119.727 147.086 120.307 146.808 120.821 146.43C121.047 146.258 121.261 146.071 121.461 145.87L121.541 145.79L121.701 145.61C121.808 145.496 121.905 145.372 121.991 145.24L122.211 144.9V144.99L122.141 145.19L121.771 146.31C121.211 148.02 120.471 150.22 119.381 153.1C117.181 158.87 116.011 161.77 114.821 164.66C113.229 168.542 111.42 172.332 109.401 176.01C107.391 179.777 104.959 183.303 102.151 186.52C101.091 187.74 100.001 188.94 98.6507 190.44C97.3007 191.94 95.6507 193.74 93.3107 196.04C91.4318 197.89 89.427 199.607 87.3107 201.18C85.8193 202.268 84.2668 203.27 82.6607 204.18C78.5639 206.54 74.0008 207.977 69.2907 208.39C67.7101 208.52 66.1214 208.52 64.5407 208.39C63.2565 208.334 61.9789 208.173 60.7207 207.91L59.0707 207.56C58.5407 207.44 58.0707 207.23 57.5507 207.08L56.1207 206.57C55.6607 206.4 55.2207 206.14 54.7707 205.93L53.4307 205.23C52.9807 205 52.5807 204.66 52.1307 204.37L50.7907 203.37C50.3607 202.99 49.9307 202.57 49.4807 202.13C48.4958 201.161 47.602 200.103 46.8107 198.97L45.5707 196.91C45.1407 196.18 44.8407 195.38 44.4407 194.53C44.0974 193.745 43.8002 192.94 43.5507 192.12C43.3115 191.418 43.1112 190.704 42.9507 189.98C42.6532 188.805 42.4262 187.612 42.2707 186.41C42.0807 185.34 42.0607 184.41 41.9707 183.51C41.8807 182.61 41.8907 181.79 41.8707 180.96C41.8468 176.656 42.0906 172.354 42.6007 168.08C43.3607 161.78 43.9207 158.72 44.4207 155.62C45.1119 151.514 46.0503 147.453 47.2307 143.46C48.5107 139.04 49.8807 136.74 51.2307 135.67C51.7916 135.235 52.4611 134.962 53.1664 134.881C53.8717 134.799 54.5857 134.913 55.2307 135.21C55.9007 135.359 56.5142 135.696 56.9995 136.181C57.4848 136.667 57.8217 137.28 57.9707 137.95C58.3107 139.54 57.9707 142.02 56.7507 146.22C55.6766 150.009 54.9305 153.883 54.5207 157.8C54.1707 160.68 53.8107 163.55 53.1107 169.28C52.4107 175.01 52.2807 177.7 52.1107 180.45C52.0174 181.916 52.0375 183.387 52.1707 184.85C52.2436 185.762 52.384 186.668 52.5907 187.56C52.6889 188.079 52.8225 188.59 52.9907 189.09C53.1807 189.6 53.3107 190.2 53.5707 190.74C53.8307 191.28 54.0307 191.82 54.2907 192.26C54.5507 192.7 54.7907 193.1 55.0107 193.5C55.2307 193.9 55.5307 194.15 55.7507 194.5C55.9532 194.795 56.1917 195.064 56.4607 195.3L57.1307 195.98L57.8307 196.51C58.0707 196.67 58.2607 196.87 58.5007 197L59.2207 197.39C59.4607 197.52 59.6807 197.67 59.9407 197.79L60.7607 198.09C61.0507 198.19 61.3307 198.32 61.6407 198.42L62.6407 198.64C63.0218 198.745 63.4093 198.825 63.8007 198.88L65.1807 199L65.9307 199.07H66.7907C67.3507 199.07 67.9507 199.07 68.5807 199.01C70.6007 198.846 72.5819 198.364 74.4507 197.58C75.7337 197.042 76.9569 196.372 78.1007 195.58C79.1607 194.83 80.2007 194.05 81.4707 193.01C82.7407 191.97 84.2507 190.68 86.1907 188.78C88.1307 186.88 89.5207 185.34 90.6907 184.04C91.8607 182.74 92.8007 181.68 93.6907 180.59C96.1798 177.646 98.3518 174.449 100.171 171.05C102.941 165.92 104.171 163.24 105.401 160.57C106.631 157.9 107.811 155.2 109.931 149.64C110.991 146.85 111.731 144.74 112.411 142.9L112.951 141.5C113.061 141.24 113.141 141.01 113.301 140.68C113.301 140.56 113.501 140.28 113.631 140.05C113.779 139.798 113.946 139.557 114.131 139.33L114.311 139.11C114.466 138.928 114.64 138.764 114.831 138.62C115.723 137.895 116.841 137.505 117.991 137.52C118.609 137.537 119.217 137.676 119.781 137.93C120.247 138.13 120.677 138.407 121.051 138.75C121.291 138.972 121.508 139.216 121.701 139.48C121.8 139.61 121.89 139.747 121.971 139.89L122.081 140.1V140.19C122.253 140.554 122.384 140.937 122.471 141.33C122.537 141.622 122.578 141.92 122.591 142.22C122.591 142.55 122.591 142.78 122.591 142.94C122.591 143.3 122.591 143.55 122.531 143.79C122.531 144.22 122.441 144.64 122.401 145.07C122.041 148.19 121.581 151.07 121.001 156.95C120.592 160.817 120.541 164.714 120.851 168.59C120.961 170.02 121.101 171.45 121.281 173.2C121.461 174.95 121.691 177.05 122.141 179.74C122.512 181.804 123.064 183.832 123.791 185.8C124.234 187.073 124.782 188.308 125.431 189.49C126.038 190.588 126.748 191.626 127.551 192.59C128.628 193.889 129.924 194.989 131.381 195.84C132.731 196.6 133.781 197.14 134.581 197.7C135.259 198.136 135.822 198.73 136.221 199.43C136.861 200.65 136.601 202.09 136.391 203.54C136.181 204.99 136.201 206.44 134.901 207.34C133.941 207.89 132.828 208.111 131.731 207.97C129.538 207.767 127.421 207.066 125.541 205.92Z" fill="#141413"/>
</svg>
