<svg width="500" height="500" viewBox="0 0 500 500" fill="none" xmlns="http://www.w3.org/2000/svg">
<path d="M168.863 121.498L221.223 280.258L249.563 238.268C249.563 238.268 292.633 286.508 295.963 286.118C299.293 285.728 327.683 254.308 327.683 254.308L283.203 207.438C283.203 207.438 328.443 190.398 328.863 190.558C329.283 190.718 168.863 121.508 168.863 121.508" fill="#E3DACC"/>
<path d="M174.053 114.579C178.247 116.446 182.44 118.316 186.633 120.189C192.903 123.029 193.303 122.149 199.583 124.999C205.853 127.839 205.293 129.079 211.563 131.929C215.757 133.803 219.947 135.676 224.133 137.549C230.403 140.389 230.683 139.769 236.963 142.619C243.243 145.469 242.993 145.989 249.273 148.839C255.543 151.679 255.633 151.489 261.903 154.339C268.173 157.179 268.493 156.489 274.763 159.329C281.033 162.169 280.933 162.399 287.213 165.239C293.483 168.079 293.283 168.519 299.563 171.359C305.833 174.199 306.173 173.449 312.453 176.299C319.213 179.359 316.563 178.739 329.153 184.439C329.873 184.779 330.623 185.079 331.163 185.409C331.413 185.579 331.663 185.739 331.903 185.899C332.143 186.059 332.283 186.219 332.473 186.379C332.643 186.539 332.823 186.689 332.953 186.829C333.073 186.969 333.183 187.109 333.293 187.249C333.523 187.519 333.723 187.779 333.833 187.999C333.963 188.229 334.093 188.439 334.213 188.649C334.313 188.849 334.363 189.019 334.443 189.189C334.593 189.539 334.713 189.859 334.793 190.129C334.973 190.659 335.213 191.939 334.883 193.349C334.723 194.039 334.423 194.719 334.113 195.079C333.943 195.289 333.773 195.509 333.583 195.739C333.413 195.969 333.103 196.269 332.853 196.559C331.803 197.649 330.503 198.669 328.913 199.259C326.073 200.269 324.193 201.099 321.743 202.049C321.113 202.289 320.463 202.529 319.773 202.799C319.413 202.929 319.043 203.059 318.663 203.199L318.393 203.299L318.243 203.359C318.143 203.399 318.033 203.439 317.933 203.479C317.073 203.809 316.053 204.159 314.783 204.539C308.183 206.509 308.023 205.989 301.433 207.959C298.133 208.949 296.433 209.289 294.743 209.629C293.963 209.789 293.183 209.959 292.213 210.159C291.993 210.159 291.703 210.209 291.353 210.309C291.003 210.419 290.803 210.519 290.773 210.659C290.743 210.829 290.963 211.069 291.223 211.189C291.793 211.409 292.183 211.439 292.303 211.559C292.323 211.579 292.333 211.599 292.353 211.609C292.573 211.829 292.773 212.029 292.963 212.229C293.423 212.719 293.833 213.149 294.203 213.539C294.933 214.329 295.493 214.989 296.063 215.639C297.183 216.949 298.313 218.259 300.783 220.659C305.733 225.449 306.043 225.129 310.983 229.919C315.933 234.709 315.253 235.409 320.203 240.209C322.673 242.609 324.083 243.629 325.493 244.649C326.193 245.159 326.903 245.669 327.733 246.349C327.833 246.439 327.943 246.519 328.053 246.609C328.163 246.699 328.243 246.769 328.493 246.989C328.913 247.379 329.353 247.779 329.833 248.219C330.303 248.659 330.803 249.129 331.333 249.629C331.873 250.119 332.383 250.689 332.773 251.319C333.173 251.939 333.433 252.529 333.603 253.049C333.783 253.559 333.903 254.139 333.953 254.699C334.053 255.829 333.853 256.869 333.573 257.599C333.013 259.059 332.003 260.349 330.703 261.379C330.103 261.909 329.503 262.439 328.863 262.999C328.573 263.259 328.273 263.529 327.963 263.809C327.773 263.969 327.583 264.129 327.373 264.309C326.553 265.019 325.603 265.889 324.393 267.119C321.147 270.366 317.897 273.613 314.643 276.859C312.223 279.309 311.043 280.559 309.863 281.819C309.273 282.439 308.683 283.069 307.933 283.849C307.093 284.709 306.083 285.739 304.743 287.109C303.263 288.539 302.083 289.979 300.903 290.609C300.333 290.949 299.803 291.189 299.333 291.359C298.843 291.529 298.303 291.639 297.763 291.679C296.683 291.749 295.653 291.519 294.853 291.139C294.013 290.749 293.053 290.189 292.063 289.179C291.373 288.459 289.913 286.939 287.763 284.689C282.973 279.749 282.513 280.189 277.713 275.239C272.913 270.289 273.363 269.869 268.563 264.919C263.773 259.979 263.163 260.559 258.363 255.619C255.963 253.149 254.643 252.029 253.323 250.909C252.663 250.349 252.003 249.789 251.203 249.059C250.803 248.699 250.373 248.289 249.893 247.819C249.183 247.119 249.423 247.379 249.383 247.329C249.383 247.329 249.413 247.239 249.363 247.109C249.303 246.979 249.233 246.929 249.143 247.009C249.123 247.009 249.093 247.049 249.053 247.109C248.383 248.349 247.883 249.279 247.473 250.059C246.953 250.999 246.543 251.759 246.133 252.519C245.303 254.029 244.473 255.539 242.863 258.579C239.633 264.669 238.843 264.249 235.613 270.339C233.363 274.639 232.243 276.799 231.113 278.949C230.753 279.639 230.393 280.329 230.013 281.059C229.833 281.439 229.653 281.869 229.443 282.249C229.223 282.579 228.993 282.969 228.743 283.299C227.723 284.609 226.423 285.529 225.103 286.149C224.593 286.439 223.583 286.709 222.643 286.679C221.713 286.679 220.883 286.469 220.373 286.279C220.103 286.179 219.923 286.109 219.743 286.029C219.553 285.939 219.373 285.849 219.193 285.759C219.013 285.669 218.843 285.619 218.653 285.509C218.463 285.399 218.273 285.279 218.083 285.169C217.343 284.699 216.433 284.089 215.583 282.439C214.813 280.669 214.003 278.229 212.923 275.029C212.663 274.219 212.413 273.469 212.183 272.749C212.073 272.419 211.973 272.089 211.873 271.779C211.823 271.609 211.773 271.439 211.723 271.279C211.533 270.629 211.383 270.059 211.243 269.539C210.983 268.489 210.813 267.639 210.643 266.789C210.303 265.089 209.963 263.389 208.883 260.119C206.723 253.569 206.473 253.659 204.323 247.109C202.163 240.569 202.733 240.379 200.573 233.839C198.413 227.299 198.023 227.419 195.863 220.879C193.703 214.339 194.293 214.139 192.133 207.599C189.973 201.059 189.463 201.219 187.303 194.679C185.143 188.129 185.323 188.079 183.163 181.529C181.003 174.989 180.883 175.029 178.733 168.489C176.573 161.939 176.003 162.129 173.843 155.579C171.683 149.029 172.513 148.749 170.353 142.199C168.193 135.649 168.363 135.589 166.203 129.039C164.533 123.989 165.853 122.519 168.813 121.539C171.773 120.559 174.093 120.829 175.763 125.879C177.923 132.419 177.663 132.499 179.823 139.039C181.237 143.406 182.653 147.776 184.073 152.149C186.233 158.689 187.003 158.429 189.163 164.969C191.323 171.509 190.573 171.759 192.733 178.299C194.893 184.839 196.163 184.419 198.313 190.959C200.473 197.499 200.263 197.569 202.423 204.109C204.583 210.649 203.983 210.849 206.143 217.389C208.303 223.929 208.153 223.979 210.313 230.519C212.473 237.059 212.353 237.099 214.513 243.639C216.673 250.179 216.343 250.289 218.503 256.829C219.583 260.099 220.173 261.719 220.763 263.339C221.053 264.149 221.343 264.959 221.713 265.969C221.963 266.679 222.253 267.539 222.643 268.679C222.893 269.429 223.043 269.759 223.183 270.049C223.253 270.189 223.313 270.339 223.403 270.509C223.493 270.679 223.933 270.749 224.083 270.399C224.423 269.759 224.513 269.189 224.503 268.789C224.503 268.589 224.483 268.419 224.483 268.279C224.483 268.249 224.483 268.209 224.483 268.179C224.603 267.929 224.733 267.659 224.873 267.369C225.173 266.769 225.513 266.089 225.913 265.329C229.133 259.239 228.843 259.089 232.063 252.999C233.673 249.959 234.543 248.469 235.403 246.969C235.833 246.219 236.253 245.469 236.793 244.539C237.383 243.449 238.093 242.149 239.033 240.419C240.123 238.379 241.063 236.729 241.203 236.319C242.273 234.289 243.503 233.499 244.413 232.899C245.223 232.399 246.443 231.969 247.673 231.899C248.283 231.869 248.903 231.909 249.443 232.019C249.973 232.139 250.493 232.279 251.143 232.569C251.783 232.829 252.523 233.259 253.323 233.909C254.123 234.589 254.943 235.539 255.883 236.479C256.883 237.519 257.753 238.429 258.533 239.239C258.993 239.729 259.393 240.169 259.753 240.559C260.473 241.359 261.043 242.009 261.603 242.659C262.733 243.959 263.863 245.269 266.253 247.739C271.043 252.679 271.253 252.479 276.043 257.419C280.833 262.359 280.593 262.589 285.393 267.539C288.607 270.819 291.82 274.099 295.033 277.379C295.383 277.739 295.713 278.069 296.013 278.379C296.163 278.529 296.313 278.679 296.453 278.829L296.593 278.969L296.633 278.999C296.723 279.069 296.803 279.119 296.873 279.149C297.053 279.219 297.153 279.279 297.303 279.179C297.463 279.069 297.503 278.849 297.663 278.709C298.093 278.289 298.463 277.929 298.803 277.609C299.293 277.149 299.733 276.749 300.133 276.389C300.943 275.679 301.623 275.139 302.303 274.599C303.663 273.519 305.013 272.439 307.433 269.989C312.273 265.089 311.293 264.119 316.133 259.219C318.423 256.909 320.313 255.009 319.753 255.579C319.753 255.579 319.803 255.569 319.783 255.539L312.443 248.409C309.136 245.223 305.833 242.036 302.533 238.849C297.583 234.059 298.423 233.199 293.473 228.399C291.003 225.999 289.713 224.849 288.433 223.709C287.793 223.129 287.153 222.549 286.363 221.829C285.973 221.459 285.533 221.059 285.043 220.599C284.323 219.909 283.523 219.139 282.603 218.259C281.453 217.149 280.443 216.189 279.533 215.319C278.583 214.469 277.913 213.659 277.503 212.959C276.653 211.529 276.423 210.589 276.203 209.649C276.013 208.639 276.153 207.039 276.813 205.699C277.153 205.029 277.413 204.609 278.013 203.949C278.583 203.339 279.343 202.579 280.763 201.949C281.493 201.659 282.243 201.429 282.953 201.229C283.653 201.019 284.313 200.819 284.933 200.629C286.173 200.239 287.273 199.909 288.263 199.599C288.643 199.479 289.013 199.359 289.363 199.249C289.593 199.169 289.823 199.099 290.033 199.019C290.463 198.869 290.873 198.729 291.283 198.589C292.913 198.029 294.543 197.459 297.843 196.479C304.443 194.509 304.883 195.969 311.483 193.989C312.763 193.609 313.793 193.269 314.673 192.969C314.883 192.899 315.083 192.819 315.283 192.759L315.413 192.689C315.493 192.639 315.563 192.589 315.623 192.539C315.863 192.349 315.973 192.179 316.173 192.029C316.263 191.949 316.403 191.879 316.633 191.809C316.883 191.719 317.083 191.699 317.053 191.519C317.033 191.359 316.833 191.219 316.623 191.179C316.193 191.099 315.863 191.059 315.573 190.929C315.423 190.859 315.323 190.799 315.233 190.749C315.183 190.719 315.173 190.699 315.083 190.649C314.673 190.449 314.283 190.259 313.893 190.069C312.343 189.319 310.793 188.559 307.653 187.139C301.373 184.299 301.123 184.849 294.843 182.009C288.563 179.169 289.053 178.089 282.773 175.249C276.503 172.409 276.243 172.969 269.973 170.129C263.693 167.289 263.423 167.899 257.143 165.049C252.95 163.176 248.757 161.303 244.563 159.429L232.003 153.749C225.723 150.909 226.193 149.859 219.923 147.019C213.653 144.179 213.753 143.949 207.473 141.099C201.193 138.259 201.023 138.629 194.743 135.779C188.463 132.929 188.323 133.219 182.043 130.379C175.763 127.529 176.013 126.979 169.723 124.129C169.583 124.069 169.453 123.999 169.333 123.949L168.803 123.699L170.463 121.039C170.563 120.879 170.573 120.759 170.573 120.759C170.573 120.759 170.573 120.789 170.593 120.839C170.633 120.919 170.643 120.899 170.593 120.869C170.483 120.799 170.463 120.839 170.593 120.819C170.673 120.809 170.793 120.769 170.773 120.769C170.193 120.989 169.543 121.239 168.833 121.499C168.123 121.759 167.483 122.059 166.873 122.209C166.273 122.339 165.633 122.339 165.043 121.649C164.753 121.299 164.503 120.759 164.413 119.989C164.333 119.219 164.453 118.219 164.993 117.159C165.533 116.109 166.483 114.999 168.093 114.299C168.883 113.939 169.863 113.729 170.933 113.749C172.003 113.779 173.113 114.079 174.093 114.619L173.683 114.409C173.803 114.459 173.933 114.519 174.073 114.579H174.053Z" fill="#141413"/>
<path d="M79.4053 61.3C106.625 60.53 106.615 60.1 133.835 59.33C137.235 59.23 140.215 59.14 142.865 59.06C143.525 59.04 144.175 59.02 144.795 59C145.425 59 146.025 58.9999 146.615 59.0099C147.795 59.0099 148.915 59.02 149.975 59.03C154.225 59.03 157.625 59.03 161.025 59.03C167.825 59.02 174.615 59 188.215 59.19C206.348 59.43 224.485 59.6733 242.625 59.92C269.825 60.29 269.825 60.98 297.015 61.35C324.215 61.72 324.225 60.44 351.425 60.81C378.625 61.18 378.615 62.26 405.815 62.63C412.615 62.72 417.715 62.74 421.975 62.71C424.105 62.69 426.015 62.67 427.825 62.65C429.675 62.62 431.415 62.59 433.155 62.56C433.955 62.56 434.765 62.55 435.565 62.61C436.345 62.7 437.115 62.85 437.865 63.11C439.355 63.62 440.755 64.48 441.915 65.66C443.055 66.85 443.985 68.34 444.455 70.08C444.705 70.94 444.825 71.86 444.855 72.84C444.865 73.58 444.885 74.34 444.895 75.13C444.995 79.38 445.065 84.48 445.095 91.28C445.195 118.47 444.425 118.48 444.525 145.67C444.625 172.87 444.275 172.87 444.375 200.07C444.475 227.28 445.755 227.27 445.855 254.48C445.955 281.68 445.575 281.68 445.675 308.88C445.705 318.33 445.675 324.5 445.605 329.7C445.585 331 445.575 332.24 445.555 333.45C445.555 334.09 445.535 334.71 445.525 335.34C445.515 336.47 445.545 337.62 445.305 338.68C444.895 340.82 443.765 342.82 442.065 344.32C440.365 345.82 438.105 346.76 435.525 346.84C433.065 346.89 430.265 346.95 426.945 347.02C423.895 347.11 420.375 347.2 416.215 347.32C402.595 347.74 395.785 347.87 388.975 348C385.575 348.07 382.165 348.14 377.905 348.23C375.775 348.32 373.435 348.27 370.785 348.24C368.125 348.22 365.155 348.2 361.745 348.17C334.525 348 334.535 348.82 307.315 348.65C289.182 348.597 271.048 348.543 252.915 348.49C225.705 348.32 225.705 347.73 198.495 347.56C180.355 347.48 162.215 347.4 144.075 347.32C116.865 347.15 116.865 346.58 89.6553 346.4C82.8553 346.36 77.7452 346.4 73.4952 346.49C72.4352 346.52 71.4251 346.54 70.4551 346.57C70.1151 346.57 69.7751 346.58 69.4451 346.59C69.0051 346.59 68.5653 346.61 68.1453 346.59C67.7153 346.59 67.2953 346.56 66.8953 346.48C66.4853 346.43 66.0851 346.34 65.6951 346.24C62.5651 345.39 60.1051 343.1 58.9751 340.23C58.6751 339.52 58.4953 338.76 58.3553 337.99C58.2453 337.2 58.2151 336.39 58.1851 335.56C58.1351 334.65 58.0852 333.72 58.0252 332.76C57.9352 330.95 57.8352 329.04 57.7352 326.92C57.5452 322.67 57.3952 317.57 57.2852 310.77C56.9919 292.643 56.6987 274.517 56.4053 256.39C55.9853 229.17 56.6852 229.16 56.2652 201.95C56.0385 183.79 55.8119 165.633 55.5852 147.48C55.1652 120.25 55.4652 120.24 55.0352 93.0099C54.7052 71.9899 56.7253 71.25 59.8453 71.2C62.9653 71.15 65.9752 71.81 66.3052 92.83C66.7252 120.02 66.3051 120.03 66.7251 147.22C67.1451 174.4 66.3652 174.41 66.7852 201.59C67.2052 228.78 67.8352 228.77 68.2652 255.97C68.6852 283.15 69.0251 283.15 69.4451 310.33C69.6151 322.77 69.7052 328.99 69.7952 335.21C69.8152 335.31 69.8852 335.41 69.9952 335.45C70.0252 335.45 70.0552 335.46 70.0852 335.46H70.2752C71.2452 335.47 72.2552 335.48 73.3152 335.49C77.5652 335.52 82.6551 335.56 89.4551 335.61C107.575 335.783 125.695 335.96 143.815 336.14C171.005 336.31 171.005 337.01 198.195 337.18C225.375 337.35 225.375 336.94 252.565 337.11C279.755 337.28 279.755 336.43 306.945 336.6C334.135 336.77 334.155 337.97 361.345 338.15C364.745 338.15 367.715 338.15 370.375 338.15C373.025 338.12 375.365 338.14 377.485 337.98C381.725 337.73 385.115 337.48 388.505 337.22C395.285 336.7 402.065 336.19 415.625 335.77C419.815 335.64 423.365 335.56 426.445 335.51C427.985 335.49 429.415 335.48 430.745 335.46C431.415 335.46 432.055 335.46 432.685 335.46C432.995 335.46 433.305 335.46 433.605 335.46C433.705 335.46 433.715 335.46 433.705 335.46L433.725 335.48C433.855 335.59 434.125 335.58 434.255 335.39C434.285 335.34 434.305 335.29 434.335 335.23V335.21C434.335 335.21 434.355 335.08 434.355 335.02L434.415 333.67C434.455 332.47 434.505 331.24 434.555 329.95C434.725 324.79 434.845 318.64 434.815 309.24C434.715 282.04 434.195 282.04 434.095 254.83C433.995 227.62 433.345 227.62 433.245 200.41C433.145 173.22 434.435 173.22 434.335 146.02C434.235 118.82 433.605 118.82 433.505 91.62C433.485 84.82 433.435 79.72 433.375 75.47C433.375 75.2 433.375 74.94 433.365 74.68V74.37L433.355 74.33L433.335 74.19C433.315 74.1 433.265 74.03 433.205 73.98C433.085 73.87 432.915 73.88 432.785 73.91C429.515 73.91 426.235 73.91 422.145 73.93C417.895 73.92 412.795 73.88 406.005 73.78C378.815 73.41 378.825 72.78 351.635 72.41C324.435 72.04 324.445 71.53 297.245 71.16C270.065 70.79 270.055 72.09 242.875 71.72C224.742 71.3933 206.605 71.07 188.465 70.75C174.855 70.56 168.045 70.4 161.245 70.23C157.845 70.15 154.435 70.07 150.185 69.98C149.125 69.96 148.005 69.94 146.825 69.91C145.645 69.88 144.395 69.87 143.065 69.91C140.405 69.98 137.435 70.06 134.035 70.15C106.845 70.92 106.845 70.5 79.6553 71.27C74.4053 71.42 70.3852 71.4 67.2952 71.25C66.5252 71.21 65.8053 71.16 65.1453 71.11C64.9853 71.1 64.8151 71.0799 64.6651 71.0699L64.4451 71.05V71.03C64.4451 71.03 64.4153 70.95 64.3853 70.91C64.2953 70.74 64.0852 70.63 63.8252 70.58C63.2952 70.48 62.6552 70.67 62.0052 70.85C61.3652 71.04 60.6453 71.17 59.8653 71.18C59.0953 71.18 58.3852 71.14 57.8352 70.43C57.5752 70.07 57.3653 69.5299 57.3553 68.7599C57.3453 67.9899 57.5352 66.96 58.2352 65.83C58.9252 64.71 60.1453 63.44 62.1453 62.73C62.6353 62.55 63.1752 62.41 63.7452 62.34C64.1152 62.29 64.5053 62.24 64.9053 62.19C65.5653 62.11 66.2752 62.03 67.0452 61.95C70.1352 61.65 74.1651 61.43 79.4251 61.28L79.4053 61.3Z" fill="#141413"/>
<path d="M368.014 431.719C357.174 425.129 356.954 425.499 346.104 418.909C335.264 412.329 335.044 412.689 324.204 406.099C321.494 404.449 319.454 403.219 317.764 402.189C317.554 402.059 317.344 401.939 317.144 401.809C316.844 401.619 316.514 401.419 316.224 401.199C315.624 400.779 315.094 400.329 314.604 399.859C313.614 398.929 312.824 397.909 312.154 396.819C311.494 395.729 310.964 394.549 310.584 393.249C310.484 392.919 310.404 392.589 310.334 392.249C310.294 392.079 310.254 391.909 310.234 391.729C310.194 391.509 310.164 391.289 310.124 391.069C310.084 390.859 310.094 390.639 310.074 390.419L310.054 390.059C310.044 389.819 310.024 389.579 310.014 389.339C309.894 387.359 309.754 384.989 309.554 381.819C308.784 369.159 309.474 369.119 308.714 356.449C308.614 354.769 308.504 353.309 308.384 352.009C308.324 351.359 308.264 350.759 308.204 350.189C308.174 349.899 308.144 349.629 308.114 349.359L308.094 349.159C308.094 349.159 308.094 349.129 308.084 349.109L308.054 349.039C307.904 348.699 307.714 348.569 307.544 348.569C307.254 348.719 307.074 348.869 306.994 348.979L306.964 349.019C306.964 349.019 306.984 349.029 306.894 349.039C306.764 349.039 306.634 349.049 306.504 349.059C305.974 349.079 305.424 349.109 304.834 349.139C303.654 349.179 302.344 349.219 300.864 349.239C288.174 349.389 288.164 348.299 275.484 348.449C262.794 348.599 262.804 349.489 250.114 349.639C237.424 349.789 237.414 349.019 224.734 349.169C212.044 349.319 212.044 348.969 199.354 349.119C199.254 349.119 199.154 349.119 199.054 349.119C198.984 349.119 198.924 349.119 198.864 349.119C198.744 349.129 198.634 349.139 198.524 349.149C198.314 349.179 198.154 349.209 198.034 349.259C198.124 349.679 198.234 349.989 198.364 350.209C198.394 350.269 198.424 350.319 198.454 350.359L198.504 350.419C198.504 350.419 198.534 350.379 198.554 350.599C198.624 351.229 198.684 351.869 198.754 352.529C199.014 355.169 199.244 358.199 199.274 363.249C199.364 375.939 198.984 375.939 199.074 388.629C199.074 389.769 199.074 390.799 199.084 391.749C199.084 392.079 199.084 392.399 199.084 392.719C199.084 393.159 199.054 393.579 199.004 393.989C198.904 394.809 198.724 395.589 198.474 396.299C197.464 399.169 195.584 401.009 193.714 402.129C191.664 403.299 189.984 404.259 187.894 405.449C185.884 406.609 183.504 408.019 180.044 410.169C169.254 416.849 169.084 416.579 158.294 423.269C156.954 424.119 155.774 424.859 154.734 425.519C154.214 425.859 153.724 426.179 153.264 426.479C152.944 426.679 153.044 426.639 152.974 426.689L152.874 426.789C152.624 427.039 152.514 427.229 152.474 427.369C152.434 427.519 152.464 427.619 152.474 427.709C152.474 427.749 152.474 427.789 152.454 427.829C152.424 427.839 152.354 427.939 152.454 428.039C152.894 428.119 153.214 428.019 153.424 427.989C153.474 427.979 153.524 427.969 153.574 427.959L153.644 427.939H153.674C153.674 427.939 153.614 427.929 153.964 427.929C155.944 427.929 158.324 427.909 161.494 427.899C174.184 427.899 174.184 428.479 186.874 428.479C195.334 428.446 203.794 428.409 212.254 428.369C224.944 428.369 224.944 428.939 237.634 428.939C250.324 428.939 250.334 427.669 263.024 427.669C271.484 427.656 279.944 427.642 288.404 427.629C301.104 427.629 301.104 428.329 313.804 428.329C326.504 428.329 326.514 428.499 339.224 428.499C351.934 428.499 351.934 428.799 364.644 428.799C374.454 428.799 374.784 430.829 374.784 433.949C374.784 437.069 374.454 440.069 364.644 440.069C351.954 440.069 351.954 439.639 339.264 439.639C326.574 439.639 326.584 438.859 313.904 438.859C301.224 438.859 301.214 439.489 288.524 439.489C275.834 439.489 275.844 439.819 263.154 439.819C254.694 439.792 246.234 439.762 237.774 439.729C225.084 439.729 225.084 439.549 212.404 439.549C199.724 439.549 199.714 438.859 187.024 438.859C174.334 438.859 174.334 439.279 161.654 439.279C158.484 439.279 156.104 439.329 154.114 439.409C150.444 439.519 147.504 439.609 144.564 439.709C142.974 439.759 141.384 439.809 139.704 439.869C137.964 439.959 136.204 439.929 134.974 439.499C134.354 439.309 133.894 439.039 133.314 438.779C132.924 438.499 132.514 438.199 132.084 437.889C131.794 437.589 131.514 437.279 131.204 436.929C130.914 436.569 130.784 436.419 130.324 435.489C129.914 434.609 129.674 433.499 129.644 432.749C129.624 432.369 129.634 432.079 129.644 431.949C129.644 431.849 129.654 431.859 129.664 431.809L129.714 431.509C129.794 431.109 129.854 430.769 129.974 430.379C130.144 429.949 130.314 429.539 130.494 429.159C130.784 428.709 131.054 428.279 131.344 427.869C131.554 427.639 131.764 427.419 131.964 427.199C132.194 426.979 132.304 426.779 132.634 426.549C132.924 426.329 133.204 426.119 133.484 425.909L133.694 425.749L134.004 425.599L134.624 425.309C134.814 425.209 134.944 425.099 135.144 425.009L135.924 424.759C136.154 424.669 136.494 424.599 136.644 424.499L137.144 424.209C139.814 422.649 142.394 421.149 145.454 419.289C146.194 418.839 146.964 418.369 147.784 417.869C148.264 417.599 148.764 417.309 149.304 416.999C150.374 416.379 151.564 415.659 152.914 414.819C163.704 408.139 163.064 407.099 173.844 400.419C177.374 398.229 179.824 396.869 181.894 395.789C182.934 395.259 183.874 394.789 184.814 394.319C185.284 394.089 185.754 393.849 186.234 393.619C186.474 393.499 186.714 393.379 186.964 393.249L187.334 393.059C187.334 393.059 187.494 392.979 187.484 392.979H187.524C187.724 392.979 187.954 392.869 188.104 392.629C188.144 392.569 188.164 392.499 188.184 392.419C188.184 392.379 188.194 392.339 188.204 392.299V392.229L188.214 391.889C188.214 390.969 188.214 389.969 188.214 388.869C188.124 376.179 187.594 376.179 187.504 363.489C187.464 358.449 187.344 355.409 187.204 352.759C187.164 352.099 187.134 351.459 187.094 350.809C187.054 349.639 187.014 348.459 186.974 347.229C186.904 344.559 186.834 341.679 186.744 338.189C189.704 338.109 193.834 338.039 199.054 337.969C211.794 337.819 211.774 339.109 224.464 338.959C237.154 338.809 237.144 338.179 249.834 338.039C262.524 337.889 262.524 337.419 275.214 337.279C287.904 337.129 287.914 337.759 300.604 337.609C302.114 337.599 303.444 337.589 304.644 337.579C306.154 337.579 307.494 337.579 308.714 337.579C312.214 337.599 315.014 337.619 317.734 337.639C317.864 340.719 317.984 343.709 318.144 347.439C318.194 348.599 318.254 349.889 318.314 351.349C318.384 352.629 318.464 354.079 318.554 355.739C319.324 368.399 320.624 368.329 321.394 380.989C321.574 384.159 321.704 386.539 321.814 388.519C321.834 388.929 321.854 389.319 321.864 389.699C321.864 389.709 321.864 389.679 321.864 389.659C321.864 389.639 321.864 389.719 321.864 389.739C321.884 389.809 321.884 389.879 321.904 389.949C321.964 390.219 322.054 390.479 322.184 390.719C322.314 390.959 322.464 391.179 322.664 391.399C322.764 391.499 322.874 391.609 322.994 391.699C323.054 391.749 323.124 391.789 323.184 391.839C323.374 391.959 323.564 392.079 323.754 392.199C325.444 393.239 327.474 394.479 330.184 396.149C341.044 402.749 340.884 403.009 351.754 409.599C362.614 416.199 362.394 416.559 373.254 423.159C375.284 424.389 376.794 425.449 377.884 426.379L376.994 425.949C377.454 426.159 377.864 426.359 378.264 426.649C378.674 426.949 379.044 427.249 379.364 427.629C380.024 428.349 380.444 429.199 380.674 429.979C381.114 431.569 380.844 432.889 380.404 433.879C379.464 435.889 377.734 436.599 376.744 436.569C375.704 436.549 375.234 436.069 375.014 435.589C374.784 435.099 374.774 434.539 374.774 433.949C374.774 433.359 374.804 432.819 374.794 432.329C374.794 432.219 374.784 432.059 374.774 431.999L374.794 432.109C374.794 432.109 374.824 432.239 374.834 432.259C374.904 432.359 374.784 432.189 374.664 432.169C374.614 432.159 374.704 432.189 374.824 432.139C374.944 432.119 374.864 432.009 374.654 432.519L373.784 434.719L373.024 434.389C371.714 433.819 370.084 432.949 368.054 431.719H368.014Z" fill="#141413"/>
</svg>
