<svg width="1000" height="1000" viewBox="0 0 1000 1000" fill="none" xmlns="http://www.w3.org/2000/svg">
<path d="M310.018 473.683C310.742 472.755 311.064 471.132 311.055 469.996C311 461.17 310.128 448.053 311 439.579C311.44 435.324 314.586 424.506 315.842 419.755C320.061 403.915 326.279 388.76 331.516 373.308C336.845 357.576 342.356 341.872 346.85 325.897C352.463 322.345 358.81 320.172 364.634 316.999C378.125 309.669 391.625 301.664 404.961 294.289C413.068 289.809 428.733 279.459 437.336 278.08C440.105 277.638 446.755 278.377 450.158 278.323C478.075 277.9 505.938 279.18 533.626 280.09C552.033 280.694 557.187 278.395 573.237 289.385C596.78 305.504 622.295 326.447 644.471 344.567C648.745 348.056 653.551 350.95 657.605 354.727C657.192 370.756 657.147 386.795 658.238 402.761C658.091 422.171 658.678 441.706 659.192 461.215C659.33 466.345 661.366 466.814 658.394 472.178C650.562 486.341 634.145 503.073 623.735 516.172C619.03 522.104 614.618 528.361 610.079 534.419C587.223 540.811 564.947 549.276 542.183 556.308C536.204 558.156 529.885 559.103 523.914 560.942C516.164 563.322 508.754 566.982 500.83 568.938H497.335C491.841 568.118 486.155 568.28 480.606 567.947C450.918 566.171 423.486 564.863 393.67 564.557C383.417 564.449 373.136 562.862 362.781 563.971C344.411 544.354 327.581 523.556 312.568 501.324L310 477.136V473.701L310.018 473.683Z" fill="#FAF9F5"/>
<path d="M48 478.648C48.1377 476.658 48.6979 474.001 48.8356 471.894C53.3524 467.643 59.779 466.527 65.6178 468.976C70.0887 470.849 69.5378 474.163 71.5116 477.432C77.3046 487.023 83.5104 496.172 91.7178 504.006C95.3441 507.473 100.155 510.499 103.827 513.975C110.382 520.153 115.266 526.124 122.464 532.175C148.6 554.157 174.645 579.308 207.897 591.078C218.418 594.806 232.667 599.345 243.674 595.716C252.781 592.717 253.855 585.819 248.906 578.336C239.891 564.693 225.836 560.055 212.212 552.473C192.97 541.757 174.738 530.455 156.808 517.739C149.179 512.327 140.328 507.023 134.306 500.26C133.287 499.117 130.12 496.956 129.67 495.479C128.761 492.453 130.368 487.184 129.193 483.862C131.782 479.395 137.915 477.954 142.808 478.162C150.969 478.504 154.329 484.816 159.911 489.364C175.61 502.169 191.924 512.021 208.595 523.611C220.328 531.77 247.346 556.426 260.942 556.102C264.78 556.012 274.254 551.536 274.548 547.232C274.732 544.53 272.575 531.283 270.601 529.798C270.279 529.554 263.999 528.428 262.714 527.969C251.128 523.836 234.53 512.751 224.275 505.664C211.633 496.929 203.077 487.995 191.95 477.837C186.415 472.785 180.025 468.67 174.793 463.249C171.35 459.683 168.678 455.378 165.134 451.857C158.781 445.554 149.207 442.077 152.75 431.406C154.164 427.164 162.05 427.372 165.575 429.326C171.928 432.847 181.228 444.626 187.113 449.921C203.527 464.689 223.624 478.377 242.104 490.724C251.983 497.324 262.467 503.205 271.712 510.778C274.154 511.724 286.051 511.661 288.08 509.914C289.888 508.347 290.275 503.854 289.577 501.593C285.436 488.166 263.008 470.948 252.147 462.213C227.158 442.114 189.748 415.917 171.809 390.324C170.762 388.829 168.89 387.379 168.697 385.461C168.486 383.399 170.486 374.43 171.827 373.052C172.258 372.602 177.987 369.99 178.593 369.855C179.548 369.648 185.001 370.36 186.231 370.666C186.617 370.765 186.562 371.404 187.002 371.584C187.507 371.791 188.398 371.386 189.004 371.737C189.15 371.818 191.465 373.746 191.575 373.872C192.658 375.132 192.887 377.168 193.897 378.464C209.1 398.078 226.764 416.268 245.4 433.486C257.408 444.59 278.882 464.266 296.425 462.366C307.653 461.151 307.552 452.659 303.981 444.266C300.666 436.476 281.158 419.807 273.869 414.404C241.204 390.198 193.778 356.987 193.613 312.474C193.512 284.999 213.993 263.125 242.884 266.601C278.064 270.824 292.551 293.941 321.488 304.864C326.473 306.746 338.261 310.925 340.152 303.496C344.109 287.998 335.121 279.163 323.03 271.437C307.625 261.603 287.281 252.265 270.205 245.195C252.065 237.685 237.541 237.343 218.344 235.776C197.137 234.047 176.133 233.867 154.926 232.984C147.453 232.669 139.934 230.805 132.351 230.679C120.361 230.49 108.5 233.201 96.8316 234.119C89.3403 234.705 82.3542 234.254 74.8261 233.101C69.3454 232.264 54.61 229.905 51.4795 225.564C49.726 223.124 47.9271 216.055 49.4694 213.371C49.754 212.885 54.7573 209.238 55.556 208.904C63.4696 205.546 76.3218 208.031 84.8413 208.067C90.8178 208.085 100.852 206.194 106.333 208.094C118.268 212.236 134.857 214.271 147.838 215.46C161.664 216.721 175.49 215.01 189.38 215.496C204.684 216.027 236.155 217.54 249.375 223.412C252.91 224.979 256.031 227.464 259.942 228.761C269.673 231.985 280.8 232.273 290.632 234.984C308.176 239.819 342.704 259.523 353.105 274.093C363.507 288.664 361.938 322.613 340.988 327.864C312.39 335.023 282.819 297.147 258.05 287.07C242.177 280.604 227.755 280.415 218.014 295.634C211.799 305.35 213.268 312.609 216.784 323.127C223.743 343.938 237.468 357.617 252.203 373.313C259.355 380.941 267.323 389.622 274.962 396.655C295.498 415.575 338.913 432.352 322.36 467.175C320.24 471.633 312.243 481.07 307.001 481.07H299.492C299.262 481.07 298.895 481.538 298.959 482.06C299.354 485.005 302.521 490.679 303.513 494.308C305.101 500.134 305.798 503.727 304.21 509.752C301.63 519.522 296.499 526.078 286.189 528.51C288.475 534.867 290.908 541.45 290.238 548.321C298.252 547.006 306.377 546.385 314.438 545.314C330.338 543.179 343.668 539.532 359.927 543.549C364.784 544.746 370.356 548.556 374.781 551.068C392.132 560.929 407.528 568.592 421.684 582.866C430.158 591.412 438.044 600.984 439.889 613.123C442.992 609.161 445.296 604.496 448.225 600.417C454.679 591.429 461.078 584.162 470.442 578.048C486.242 567.746 502.5 559.641 519.952 552.482C527.334 549.456 536.771 541.342 544.96 537.245C561.586 528.933 585.777 525.835 604.175 529.275C612.915 530.914 615.329 534.885 621.884 538.902C626.373 541.657 632.395 543.567 637.013 546.151C659.028 558.479 674.745 580.794 694.676 595.635C703.251 602.029 708.484 603.227 717.095 608.008C729.581 614.942 753.68 631.404 762.603 641.895C773.895 655.169 784.563 673.305 790.732 689.434C793.321 696.206 794.753 703.238 797.388 709.911C805.136 729.516 810.957 735.36 811.544 758.27C811.81 768.806 811.26 779.774 808.24 789.851C814.372 788.266 821.257 787.429 827.279 785.7C836.919 782.935 845.852 776.596 855.951 773.57C872.292 768.68 891.258 771.048 904.662 781.675C908.977 785.097 915.082 790.338 919.333 794.057C930.827 804.098 932.443 824.233 937.116 838.453C943.643 858.318 952.254 870.854 947.747 893.06C946.26 900.373 942.44 907.055 940.366 914.061L939.374 913.565C939.356 914.169 939.273 914.853 938.97 915.385C925.887 938.159 894.554 945.084 869.547 944.787C848.56 944.534 823.185 937.285 802.63 942.643C794.423 944.778 793.587 946.65 784.507 944.462C776.759 942.598 776.052 939.654 771.471 934.169C770.709 933.26 768.689 932.116 767.872 931.08C757.269 917.546 755.24 883.713 756.452 867.008C756.663 864.154 758.16 861.488 757.94 858.597C756.838 860.038 755.093 861.047 753.854 862.199C748.887 866.846 745.481 870.745 739.505 875.122C738.954 875.527 737.733 875.275 736.953 875.842C715.241 891.484 711.055 922.661 688.204 936.007C678.372 941.752 664.913 937.906 654.337 939.113C640.887 940.644 632.79 943.022 618.34 942.968C594.819 942.886 571.254 941.175 547.853 938.996C539.654 938.231 531.566 938.213 523.68 935.214C518.778 933.35 514.334 929.964 509.909 928.1C498.672 923.381 486.223 919.815 475.95 912.809C464.466 904.983 445.553 882.56 438.943 870.457L428.881 848.781C428.193 855.679 428.018 863.136 426.017 869.782C424.465 874.933 412.999 897.662 409.557 901.255C405.93 905.037 397.76 913.214 393.849 916.285C390.737 918.734 386.569 920.247 383.521 922.598C378.389 926.551 374.432 932.206 368.409 935.988C342.263 952.432 320.129 942.328 292.496 944.291C285.39 944.795 278.679 947.227 272.225 947.938H253.708C246.905 946.849 239.772 947.47 232.942 946.957C220.869 946.056 214.535 944.129 203.674 939.338C176.445 927.316 152.879 915.15 143.927 884.641C140.595 873.276 141.926 868.575 141.797 857.868C141.715 850.745 140.007 842.082 139.612 834.76C139.199 826.944 144.248 814.256 147.921 807.096C156.954 789.473 187.617 762.646 205.914 754.505C214.241 750.804 223.22 748.571 231.519 744.771C242.82 739.602 252.946 732.254 263.88 726.445C269.692 723.357 270.546 725.095 263.679 719.935C258.657 716.17 254.24 712.955 249.898 708.182C244.38 702.122 236.696 693.099 233.336 685.904C225.588 669.316 226.433 649.784 227.663 631.512C228.26 622.714 232.097 618.895 237.192 612.142C231.179 611.862 225.469 610.89 219.676 609.44C194.76 603.181 171.661 592.564 149.95 579.651C134.792 570.636 123.933 562.631 110.024 552.049C106.728 549.546 101.963 547.43 98.8049 544.89C82.9134 532.139 71.1625 513.318 59.0166 497.514C55.4913 492.93 49.5791 488.553 48.9548 482.709C48.863 481.854 49.3316 480.962 48.0188 480.566C48.0464 479.918 47.9729 479.251 48.0188 478.603L48 478.648ZM663.261 594.816C653.823 585.982 645.248 573.662 635.829 565.513C633.396 563.414 618.983 552.626 616.826 551.752C612.208 549.861 593.488 547.151 588.237 547.358C573.677 547.943 559.786 550.266 546.778 556.759C541.315 559.488 536.523 563.243 530.785 565.62C526.452 567.412 522.055 568.268 517.759 570.024C507.284 574.319 480.09 592.132 474.977 601.695C473.352 604.73 472.508 608.8 470.984 612.015C465.732 623.083 459.967 633.619 454.972 644.912C438.163 665.777 442.809 692.495 438.228 716.864C432.279 748.499 422.235 771.579 429.91 804.818C433.417 820.019 439.595 830.519 446.315 844.207C452.549 856.904 455.395 865.63 465.172 876.752C477.125 890.341 486.352 897.068 503.088 904.371C511.837 908.189 532.025 917.194 540.81 917.365C544.785 917.447 548.981 916.042 552.81 915.781C557.225 915.484 561.219 916.762 565.322 916.852C571.657 916.996 578.543 915.7 584.776 916.042C599.557 916.852 614.696 918.086 629.33 918.977C635.912 919.383 636.876 917.987 641.953 917.14C656.862 914.664 662.774 914.556 677.077 908.441C695.099 900.733 709.696 875.212 724.173 861.857C725.174 860.929 727.368 860.056 728.644 858.877C737.09 851.042 742.948 841.902 750.411 833.59C757.875 825.278 768.121 819.019 773.886 808.996C774.538 807.862 774.629 805.772 775.483 804.674C777.356 802.287 778.688 802.224 780.432 798.235C787.023 783.232 789.419 766.194 786.573 750.003C784.728 739.476 777.283 729.858 773.354 719.772C771.187 714.216 769.993 708.318 768.24 703.086C762.704 686.597 755.204 660.644 742.415 648.496C725.936 632.854 705.61 622.669 686.763 610.791C678.785 605.766 670.082 601.2 663.261 594.816ZM342.474 705.148C355.85 697.07 368.336 689.956 382.465 683.256C386.523 681.329 392.297 680.185 396.015 677.403C397.539 676.259 399.247 673.521 401.092 672.081C403.58 670.126 407.06 668.442 409.346 666.425C419.803 657.222 424.466 627.928 421.363 614.897C418.26 601.867 392.123 577.849 380.151 570.852C357.292 557.498 349.461 560.461 325.381 565.495C310.16 568.673 291.789 570.276 279.239 580.038C276.145 582.442 274.135 587.827 271.565 590.907C270.784 591.835 268.663 592.618 267.837 593.87C266.634 595.671 265.276 602.182 264.11 604.947C261.163 611.971 257.527 615.933 254.011 622.039C253.506 622.912 249.761 630.557 249.687 631.053C249.182 634.43 252.258 643.759 253.093 647.883C254.278 653.728 255.141 657.825 256.573 663.616C257.766 668.452 257.5 674.728 259.189 679.213C259.886 681.068 269.957 695.683 271.399 696.935C275.98 700.906 291.899 711.163 297.426 713.874C309.599 719.844 323.233 715.522 334.984 710.299C338.472 708.75 340.124 706.588 342.502 705.148H342.474ZM408.336 797.74C408.446 794.345 406.839 790.779 406.38 787.636C403.139 765.204 402.947 746.491 409.089 724.599C411.678 715.387 416.295 706.814 419.205 697.701C420.904 692.388 422.263 686.867 423.346 681.392C420.151 684.165 415.038 686.948 412.063 689.722C410.998 690.712 409.227 693.612 407.85 694.9C403.801 698.7 394.06 703.473 388.753 706.12C374.973 712.991 360.9 719.475 347.377 726.409C346.303 726.959 344.999 727.454 343.769 727.544C349.396 731.245 355.704 733.803 361.24 737.648C371.568 744.825 374.542 748.751 381.428 758.594C387.505 767.275 395.419 774.848 401.019 784.052C403.645 788.374 405.416 793.543 408.327 797.74H408.336ZM316.09 742.448C307.672 739.935 288.3 739.278 279.799 741.115C271.491 742.916 264.357 749.238 257.05 753.164C239.203 762.745 218.299 769.517 202.288 781.044C188.141 791.238 171.717 802.143 163.923 818.416C162.977 820.388 158.552 830.141 158.249 831.51C156.752 838.182 159.985 849.304 160.894 856.004C161.628 861.371 160.563 865.486 163.014 870.745C170.615 887.009 183.771 898.184 199.681 905.47C217.528 913.637 229.407 918.986 249.504 921.4C263.522 923.084 272.39 921.886 285.895 921.652C313.299 921.193 343.797 931.414 368.272 914.304C370.264 912.908 371.816 910.738 374.157 909.27C378.086 906.812 383.273 905.352 386.991 902.228C388.735 900.76 398.714 890.44 399.844 888.81C401.799 885.973 402.736 880.723 404.15 877.328C409.474 864.604 410.998 860.029 411.365 845.621C411.934 823.243 403.057 820.856 390.911 805.286C378.352 789.176 366.849 771.525 350.682 759.413C340.042 751.435 328.713 746.212 316.08 742.438L316.09 742.448ZM913.467 905.902C921.169 898.193 931.185 886.342 929.808 874.609C929.578 872.654 927.908 869.512 927.476 867.575C924.015 852.122 919.305 836.597 913.595 821.784C911.805 817.137 911.373 811.725 907.765 807.871C905.966 805.953 888.541 792.129 886.825 791.589C863.772 784.25 853.738 804.746 834.863 809.393C825.683 811.653 813.077 810.329 805.32 813.301C803.125 814.147 796.782 819.947 795.515 821.847C792.752 825.989 793.486 828.484 792.072 832.707C790.659 836.931 786.28 845.278 785.747 849.079C785.481 850.979 786.188 852.996 786.023 854.374C783.957 871.754 779.164 884.226 784.93 901.849C787.326 909.162 790.989 915.312 796.066 920.616C796.736 921.319 796.736 922.643 797.948 923.435C799.252 924.291 806.981 925.281 808.955 925.398C813.417 925.668 817.833 924.822 821.983 924.84C849.8 925.002 872.751 928.442 899.145 916.618C906.214 913.448 908.418 910.936 913.467 905.884V905.902Z" fill="#141413"/>
<path d="M530.767 74.3119C554.774 90.1161 550.184 124.948 527.958 139.897C532.887 139.771 537.8 139.969 542.693 140.419C573.117 143.202 592.626 153.801 609.031 178.935C617.303 191.605 617.018 214.244 610.629 227.617C605.91 237.487 601.126 247.438 595.434 256.902C587.374 270.311 576.165 281.793 559.879 284.413C557.932 284.728 556.427 284.026 554.866 284.323C552.498 284.783 550.23 286.376 547.219 286.674C539.773 287.412 526.351 286.737 518.924 285.476C516.914 285.134 512.985 283.405 511.718 283.305C503.611 282.684 494.449 285.458 485.681 284.702C474.151 283.711 463.135 276.075 451.696 276.912C448.354 277.155 443.819 278.722 440.605 279.037C423.181 280.766 402.506 269.608 394.134 254.714C375.286 221.178 398.063 180.537 422.85 156.313C431.251 148.11 441.652 141.104 453.889 140.365L444.773 137.384C412.513 120.373 419.169 97.0141 437.971 72.4748C445.03 63.2624 451.448 56.9496 463.281 54.0949C471.498 52.1138 478.227 52.6992 486.426 55.6889C490.52 57.1838 495.303 60.8398 499.177 62.3347C502.537 63.6314 506.65 63.7757 510.176 64.8023C516.978 66.7835 524.882 70.4036 530.785 74.2939L530.767 74.3119ZM447.564 120.581C451.402 124.282 459.021 126.011 463.997 128.271C472.204 131.99 474.325 135.196 484.644 135.512C497.451 135.908 523.496 128.415 525.396 113.584C527.168 99.7516 520.228 82.5514 505.043 79.6518C498.139 78.337 489.648 76.9502 482.652 76.0857C479.678 75.7165 474.931 76.248 472.37 75.8698C470.827 75.6447 467.605 73.3752 465.769 73.7174C465.255 73.8165 462.519 75.8068 461.886 76.3201C457.846 79.616 456.781 82.4255 454.303 86.0636C450.832 91.1606 441.918 101.985 441.541 107.667C441.312 111.053 445.095 118.194 447.564 120.572V120.581ZM588.237 176.494C584.216 172.91 565.148 162.554 559.897 161.348C541.214 157.07 523.248 158.889 504.456 160.249C483.478 161.762 465.356 163.923 445.499 168.335C443.892 168.696 441.918 168.624 440.376 169.11C431.801 171.766 416.818 190.056 413.504 198.224C409.024 209.264 406.481 232.984 415.074 242.53C428.119 257.01 448.987 255.506 466.513 258.352C481.302 260.747 494.66 263.404 509.744 265.034C525.782 266.772 541.958 262.27 557.079 257.082C573.209 251.544 578.111 246.294 586.732 232.165C598.207 213.353 607.727 193.884 588.237 176.485V176.494Z" fill="#141413"/>
</svg>
