<svg width="1917" height="822" viewBox="0 0 1917 822" fill="none" xmlns="http://www.w3.org/2000/svg">
<g clip-path="url(#clip0_2387_5658)">
<g opacity="0.25">
<path d="M371.223 0.0183374C356.976 34.4194 344.28 71.3693 336.693 107.962C327.033 154.539 327.125 195.211 332.262 242.366C339.775 311.296 356.793 380.025 390.377 441.208C395.68 447.424 407.202 441.015 412.917 438.017C473.528 406.202 510.324 361.642 549.128 307.207C600.547 235.086 663.589 143.344 657.094 50.5288C655.901 33.5392 651.479 16.9988 650.369 0.00916872H665.377C664.13 14.9542 667.735 29.6791 668.359 44.505C671.808 126.015 626.059 219.142 580.557 284.625C557.064 318.43 528.845 356.938 498.297 384.371C477.895 402.69 450.071 428.17 427.769 442.858C424.412 445.068 403.808 456.098 403.34 457.501C402.872 458.904 403.478 460.866 404.202 462.122C408.752 469.998 422.32 482.421 428.659 490.912C441.888 508.626 451.805 536.379 463.822 550.738C465.941 553.268 469.308 554.772 471.721 557.862C495.15 587.852 514.388 621.144 540.221 649.338C542.652 651.557 547.248 651.19 550.064 650.007C553.999 648.348 572.118 614.735 576.301 608.253C619.564 541.285 663.882 475.334 707.806 408.769C712.383 401.828 716.053 393.338 720.566 386.535C747.546 345.844 777.728 308.188 808.469 270.441C820.055 256.211 832.586 242.458 844.659 228.631C850.484 215.722 841.797 205.352 838.164 193.717C829.477 165.917 826.954 142.702 829.458 113.481C832.788 74.6334 850.255 35.8405 864.456 0.00916872H879.464C877.372 4.59353 874.226 8.6461 872.272 13.313C851.411 63.0441 833.384 125.951 843.751 180.138C845.099 187.198 850.016 209.065 858.97 208.524C861.851 208.35 873.593 191.507 876.932 187.895C908.178 154.236 940.047 119.89 972.485 87.4421C1003.13 56.791 1035.82 28.3864 1068.56 0H1089.57L1023.55 58.4873C975.311 95.1713 934.387 138.228 893.977 182.943C884.39 193.552 861.236 210.78 865.914 226.962C866.648 229.502 872.831 236.406 874.941 238.928C914.728 286.385 990.851 304.777 1049.52 288.375C1127.53 266.553 1174.77 210.495 1220.8 148.579C1244.78 116.314 1269.73 78.5851 1287.52 42.3503C1294.14 28.8631 1296.89 13.7989 1302.67 0.00916872H1313.68C1307.92 15.8619 1304.63 32.9891 1297.53 48.3467C1263.94 121 1216.96 193.102 1155.07 244.887C1077.29 309.958 962.257 332.724 881.822 258.558C874.538 251.837 867.694 242.329 861.025 234.857C853.787 230.465 845.815 239.634 841.476 244.456C827.926 259.493 817.661 279.013 805.854 294.829C794.919 309.472 780.856 323.702 770.581 338.555C750.702 367.299 732.263 397.354 712.2 426.162C667.359 490.536 620.353 553.974 581.154 622.107C573.888 634.741 567.751 648.21 561.265 661.257C560.916 664.952 562.825 670.591 564.861 673.708C567.32 677.477 582.823 693.788 586.841 697.73C620.463 730.756 663.524 754.998 695.036 791.05L722.401 821.701H700.889C697.907 821.701 663.818 785.292 658.424 779.937C632.682 754.393 604.519 729.583 579.301 703.268C573.668 697.382 560.485 675.588 550.321 681.263C547.954 682.584 540.248 703.818 538.175 708.109C524.378 736.679 508.406 762.7 496.792 792.718C495.114 797.055 488.793 819.638 487.784 820.701C485.756 822.856 478.408 821.178 475.262 821.682C480.867 793.699 491.004 765.038 503.425 739.356C511.195 723.293 521.69 708.384 529.469 692.403C533.423 684.289 539.597 672.342 538.056 663.485C536.514 654.628 509.461 628.8 502.315 620.227C484.472 598.809 462.694 573.063 447.429 550.105C440.016 538.947 434.164 525.533 427.054 514.484C417.045 498.916 405.165 483.347 393.983 468.549L382.185 468.292C336.436 491.938 290.237 514.668 240.351 528.513C230.645 531.208 219.508 528.953 220.334 542.009C220.958 551.819 228.269 569.02 230.838 579.573C247.525 648.183 271.642 740.392 267.202 810.24C266.533 820.784 267.028 822.929 255.148 821.682C257.882 800.75 251.313 779.167 249.158 758.198C242.516 693.696 238.837 641.865 221.26 578.152C219.747 572.678 212.344 545.887 210.151 543.265C209.124 542.036 208.169 541.349 206.693 540.716C188.492 532.996 162.081 541.66 142.587 541.871C127.524 542.027 94.8376 537.012 78.8295 534.518C66.8395 532.657 53.2074 526.981 41.7861 522.544C27.1999 516.877 13.4211 509.781 -0.990826 503.803V488.812C61.0234 516.226 127.267 542.11 196.546 529.732C201.601 528.577 204.839 524.368 204.601 519.261C204.225 511.019 190.189 479.854 186.336 470.071C151.293 381.079 119.983 310.425 44.0337 248.39C30.5483 237.378 14.2834 226.211 -1 217.913V199.924C15.8246 206.828 33.3922 221.095 47.0335 233.399C120.854 299.973 173.209 384.289 205.115 478.295C210.05 492.828 215.197 507.379 217.187 522.709C218.022 523.341 228.737 521.398 230.673 520.857C266.991 510.817 306.172 487.033 343.151 476.297C349.151 470.099 377.222 461.416 380.635 455.768C387.901 443.748 371.259 423.375 366.003 412.51C318.648 314.533 308.704 212.751 326.418 105.715C332.409 69.4989 341.748 34.0801 355.178 0H371.186L371.223 0.0183374Z" fill="#FAF9F5"/>
<path d="M1489.79 0.0183374C1489.57 8.19684 1490.92 16.3753 1490.85 24.5263C1490.44 75.6144 1465.27 122.082 1455.24 171.923C1451.2 192.021 1450.52 212.678 1446.49 233.151C1436.36 284.689 1423.14 324.325 1404.23 372.855C1402.84 376.413 1393.55 391.257 1401.16 391.853C1427.73 386.058 1453.75 376.825 1480.57 372.168C1500.2 368.766 1525.47 365.538 1545.32 363.888C1561.71 362.522 1571.17 368.738 1579.71 350.273C1605.09 295.416 1617.66 233.784 1638.4 176.993C1655.02 131.461 1680.69 76.8064 1705.71 35.3362C1713.21 22.9126 1722.88 12.066 1730.89 0.0183374H1743.9C1733.29 18.3649 1719.94 34.7036 1709.69 53.3069C1663.19 137.687 1618.03 241.724 1596.31 335.869C1595.54 339.206 1592.43 357.112 1593.31 358.882C1595.15 362.595 1612.54 360.065 1617.36 361.963C1697.69 354.417 1785.36 352.51 1865.34 365.007C1882.37 367.666 1899.04 372.846 1916 375.872V396.868C1901.64 393.677 1886.5 387.241 1872.36 383.986C1804.23 368.307 1723.83 366.822 1654.35 369.857C1639.39 370.508 1616.23 369.435 1602.43 371.957C1586.4 374.891 1584.25 391.348 1581.33 404.845C1576.3 428.023 1573.9 451.083 1568.14 474.637C1541.49 583.672 1503.82 679.787 1509.82 795.185C1510.28 803.987 1511.73 813.064 1513.3 821.691C1510.42 821.141 1502.75 822.645 1500.74 821.242C1499.43 820.325 1497.93 807.627 1497.76 805.142C1492.29 722.284 1506.95 640.866 1524.92 560.392C1533.97 519.857 1550.12 478.644 1560.55 438.045C1563.55 426.373 1570.56 401.847 1571.58 391.083C1573.5 371.141 1553.8 374.432 1540.48 376.009C1488.94 382.106 1439.3 396.593 1389.38 409.979C1377.35 418.552 1373.79 432.415 1366.91 444.5C1315.26 535.151 1259.82 623.95 1201.85 710.42C1187.15 732.342 1169.22 753.54 1156 775.564C1152.42 781.523 1133.46 821.682 1130.12 821.682H1101.61C1125.32 797.798 1143.9 770.163 1163.23 742.804C1184.86 712.199 1204.78 680.282 1226.09 649.677C1235.22 636.566 1243.2 614.02 1251.5 599.093C1270.69 564.601 1295.45 532.712 1317.3 499.897C1325.66 487.336 1362 434.992 1361.81 423.32C1361.78 421.789 1361.92 419.441 1360.09 418.9C1357.83 418.231 1320.47 430.728 1314.9 432.534C1170.58 479.304 1043.99 551.15 948.533 671.26C929.397 695.337 916.92 719.259 901.289 745.004C886.069 770.062 868.043 793.507 858.301 821.508L845.457 821.673C848.255 781.276 876.061 752.697 897.913 721.652C914.233 698.473 926.81 677.348 946.001 655.738C989.943 606.245 1041.58 564.802 1094.06 524.772C1160.19 474.316 1234.89 441.74 1313.93 415.581C1332.27 409.512 1359.62 405.331 1374.19 393.815C1393.6 378.476 1393.2 356.471 1400.01 334.64C1405.4 317.357 1413.8 301.192 1419.24 283.882C1440.94 214.676 1454.28 140.74 1471.68 70.3791L1474.77 0H1489.78L1489.79 0.0183374Z" fill="#FAF9F5"/>
</g>
</g>
<defs>
<clipPath id="clip0_2387_5658">
<rect width="1917" height="822" fill="white"/>
</clipPath>
</defs>
</svg>
