<svg width="1917" height="822" viewBox="0 0 1917 822" fill="none" xmlns="http://www.w3.org/2000/svg">
<g clip-path="url(#clip0_2387_5653)">
<path opacity="0.25" d="M1917 380.658L1916.91 380.561C1912.88 386.924 1904.91 391.917 1900.5 397.302C1892.26 407.386 1884.67 426.183 1881.76 439.009C1878.57 453.009 1877.07 480.128 1870.89 491.681C1865.83 501.177 1845.49 514.199 1836.96 522.129C1794.41 561.584 1763.57 634.228 1805 686.41C1813.43 697.082 1827.77 707.46 1835.08 719.11C1845.86 736.439 1844.08 760.132 1851.96 779.419C1858.98 796.65 1870.89 806.538 1880.54 821.518C1869.39 823.965 1863.48 816.72 1857.02 808.496C1841.83 789.209 1841.74 773.74 1838.65 750.635C1832.93 707.558 1802 707.068 1782.97 674.173C1766.85 646.466 1769.1 605.249 1786.16 578.521C1799.38 557.766 1808.94 534.465 1826.74 517.919C1834.43 510.772 1843.8 505.485 1851.21 498.045C1866.58 482.576 1866.48 449.485 1871.17 427.946C1876.42 403.96 1883.35 395.54 1900.13 380.169C1906.22 374.588 1911.38 366.266 1917 360.196V380.658ZM742.713 -106.804C736.527 -95.0555 730.248 -84.3837 722.281 -73.9082C707.848 -55.1108 680.76 -22.411 660.703 -12.0332C633.148 2.26069 580.193 12.1492 565.946 43.1846C548.982 80.2898 582.348 118.374 550.294 161.451C530.143 188.472 506.524 189.745 482.905 207.074C478.407 210.403 476.907 215.201 473.439 218.529C469.128 222.739 438.573 232.039 430.7 234.291C411.299 239.969 397.428 241.439 378.589 251.327C359.75 261.215 327.04 292.838 318.323 313.691C307.264 340.125 306.045 370.377 303.608 398.573C299.484 446.056 290.861 459.861 260.494 493.735C238.937 517.819 209.976 534.071 190.763 559.232C149.805 612.883 191.419 650.087 246.717 637.164C256.651 634.814 265.087 628.647 274.646 625.514C306.326 615.234 320.572 634.422 351.127 631.094C381.682 627.765 412.986 567.848 437.823 547.093C459.193 529.274 473.252 530.449 499.308 535.834C508.68 537.792 516.928 542.981 525.551 544.548C549.263 548.855 568.289 543.275 591.158 540.142C601.562 538.673 612.716 538.869 622.932 537.106C654.798 531.526 683.291 513.61 716.563 515.96C749.836 518.31 774.58 550.226 811.508 532.604C861.651 508.715 894.736 452.519 950.315 443.609C978.527 439.106 997.554 435.581 1023.61 421.776C1041.98 412.084 1053.79 396.322 1074.03 389.958C1087.53 385.748 1100 387.804 1112.84 384.965C1135.24 380.07 1145.45 365.678 1163.82 354.615C1194.28 336.209 1256.42 321.915 1267.01 370.867C1270.95 389.175 1260.27 400.141 1277.61 414.532C1288.57 423.735 1302.16 426.28 1310.13 439.986C1324.75 465.245 1321.94 498.925 1342.84 522.813C1371.14 555.219 1393.36 529.862 1419.51 546.701C1437.69 558.352 1439.84 591.247 1458.03 605.835C1489.8 631.192 1518.2 608.479 1552.13 606.031C1621.77 600.941 1621.95 675.445 1621.67 728.019C1621.58 751.026 1616.8 761.991 1628.61 783.236C1635.64 795.866 1644.45 809.376 1652.98 820.929C1643.14 822.985 1641.82 821.124 1636.76 813.684C1628.23 801.152 1612.3 777.264 1611.18 762.48C1607.52 716.368 1626.83 622.38 1560.09 617.191C1520.45 614.059 1491.21 638.926 1454.47 614.255C1429.91 597.709 1428.13 554.142 1399.17 551.303C1373.96 548.855 1366.83 557.275 1342.84 538.674C1315.56 517.625 1314.07 491.19 1302.82 461.722C1292.41 434.407 1273.67 437.931 1262.61 420.112C1251.55 402.294 1259.33 389.175 1255.02 372.336C1253.52 366.462 1248.74 352.265 1243.49 350.014C1226.62 342.867 1195.69 351.189 1179.47 358.923C1155.67 370.378 1141.98 390.643 1114.52 396.909C1105.43 398.965 1095.22 398.182 1085.75 400.238C1063.26 405.231 1051.73 422.756 1032.33 433.525C1014.7 443.316 983.963 455.749 964.374 458.196C941.599 461.035 933.82 458.392 913.2 472.49C868.493 503.232 822.005 565.694 761.646 545.918C728.748 535.051 726.78 525.946 688.353 534.757C634.273 547.191 580.099 569.415 524.426 554.142C514.585 551.4 504.931 546.604 494.996 545.037C479.719 542.59 467.909 540.24 454.132 548.268C416.267 570.59 398.646 640.199 350.189 640.885C330.882 641.178 321.978 635.597 304.92 631.094C281.208 624.828 269.117 639.122 248.591 644.507C214.756 653.416 165.831 648.52 163.395 602.604C161.145 561.778 201.916 535.345 227.69 513.121C249.903 494.03 278.302 453.889 283.738 424.126C286.644 408.462 284.769 392.111 287.956 376.545C301.171 311.342 321.041 272.768 377.745 240.068C400.052 227.243 427.326 220.684 452.069 213.732C456.755 212.46 462.285 213.145 466.972 210.697C470.721 208.739 472.783 203.843 476.345 201.004C492.091 188.472 516.74 180.934 531.736 165.955C576.256 121.507 531.361 84.2053 549.919 37.3096C567.258 -6.45309 623.682 -2.73258 658.454 -22.0195C679.448 -33.6701 689.946 -57.9504 703.067 -77.6289C709.534 -87.3212 718.064 -95.8391 722.469 -107H742.9L742.713 -106.804ZM1088.19 557.181C1105.34 549.544 1152.39 547.684 1169.26 556.397C1181.44 562.761 1186.22 573.334 1193.72 583.712C1206.75 601.824 1224.18 606.719 1237.49 627.083C1253.52 651.755 1255.11 662.427 1279.48 682.497C1311.44 708.833 1340.5 734.19 1383.05 738.596C1396.36 739.966 1403.95 734.19 1414.91 733.994C1426.63 733.798 1443.41 740.064 1452.59 747.603C1477.52 767.869 1456.53 796.065 1471.34 821.324L1471.52 821.52H1459.06C1457.84 821.52 1453.9 801.156 1453.72 798.708C1451.75 773.253 1459.25 760.624 1430.94 748.288C1410.51 739.379 1400.48 749.169 1380.61 746.036C1337.78 739.379 1304.6 717.84 1270.67 690.917C1246.86 672.022 1243.77 658.314 1228.49 634.72C1217.72 617.978 1209.09 616.021 1195.88 604.664C1183.6 594.09 1177.41 573.628 1161.57 567.166C1150.23 562.565 1122.68 564.132 1110.21 566.286C1079.75 571.475 1055.48 604.957 1026.14 614.943C1017.61 617.782 1010.21 617.685 1002.05 619.545C969.717 626.986 944.974 650.287 919.387 669.672C906.265 679.56 884.708 687.979 869.243 693.462C836.627 704.917 808.696 704.133 775.049 705.504C760.334 706.091 742.713 703.057 728.654 709.91C721.719 713.337 715.627 726.26 710.565 732.819C689.477 760.134 670.826 777.169 635.397 780.498C599.969 783.827 579.818 764.638 548.326 761.211C533.424 759.547 499.871 763.463 485.999 769.337C478.97 772.274 464.536 783.24 460.131 789.604C456.944 794.205 447.665 819.954 445.603 821.324C444.196 822.303 437.355 821.03 435.105 821.52C443.259 808.988 444.385 791.561 452.164 779.421C469.691 752.106 500.433 747.505 529.862 749.071C565.478 751.029 595.47 771.589 632.023 768.554C663.422 766.008 683.948 750.441 704.005 726.847C708.785 721.266 713.846 711.77 718.72 706.875C728.467 697.183 776.83 690.035 791.076 689.644C801.386 689.35 812.445 691.406 823.13 690.623C843.187 689.252 891.549 676.427 908.795 665.951C917.98 660.371 925.479 651.07 933.82 644.706C959.126 625.615 984.245 614.65 1013.3 604.272C1042.35 593.895 1061.38 569.223 1088.19 557.181ZM1120.8 711.968C1189.78 708.737 1169.63 766.598 1208.9 802.92L1235.05 821.521H1220.43C1219.21 821.518 1202.63 809.187 1200.94 807.619C1188.28 796.262 1182.1 781.479 1174.79 766.206C1167.95 751.912 1164.48 731.744 1147.98 726.457C1138.52 723.422 1112.55 722.247 1104.12 727.044C1097.93 730.569 1083.69 748.974 1076.94 755.24C1066.44 764.933 1055.66 772.668 1043.2 779.423C1029.04 787.157 994.742 799.003 986.306 810.947C985.087 812.612 981.338 821.619 980.494 821.619H966.717L966.623 821.521C972.059 810.361 976.839 800.374 986.961 793.129C1014.52 773.352 1043.01 770.709 1071.5 744.079C1090.9 725.869 1090.9 713.436 1120.8 711.968ZM89.8193 260.822C117.468 248.878 138.275 221.27 171.36 224.599C185.7 226.067 212.975 233.997 218.88 249.172C230.502 279.13 202.571 322.991 175.203 332.39C152.99 340.026 143.149 333.858 127.966 357.257C111.845 382.026 127.591 406.405 100.316 432.35C82.5086 449.385 67.1372 445.958 46.3301 452.126C26.8355 457.902 11.0898 476.993 -3.25 490.896V473.763C-3.25 469.553 28.6167 444.881 34.334 442.531C56.3593 433.622 76.2292 446.545 97.2236 424.615C118.218 402.685 107.346 381.145 118.405 357.551C132.277 327.886 143.618 330.138 169.674 321.131C185.795 315.55 205.009 292.348 208.102 274.921C211.194 257.494 209.226 249.074 192.918 242.025C187.482 239.676 174.36 235.563 168.643 234.878C140.994 231.745 118.218 257.298 94.6934 268.851C76.8856 277.564 56.3596 277.858 42.0195 293.718C25.8051 311.732 19.9937 340.32 -3.25 350.796C-2.50022 346.292 -4.37461 337.481 -3.25 333.663V333.467C-2.96815 332.585 7.90297 323.089 10.0586 320.445C23.7425 303.41 29.366 283.634 50.7354 273.844C63.1071 268.165 77.635 266.011 89.8193 260.822ZM967.561 -106.81C962.593 -82.236 955.47 -61.6763 944.598 -39.3545C936.444 -22.613 935.225 -16.7383 929.602 0.688477C919.479 31.9195 906.358 29.7658 884.613 47.4863C873.929 56.1997 860.714 72.843 856.027 86.3535C847.686 110.536 866.244 119.935 868.024 141.571C869.805 163.208 860.807 169.571 846.092 179.949C817.505 200.019 744.962 222.636 774.86 271.392C790.794 297.336 832.689 293.322 856.964 284.119C866.805 280.399 875.241 273.741 885.645 270.412C895.392 267.279 905.514 266.301 915.637 262.776C929.789 257.881 954.908 243.391 968.217 235.069C976.746 229.783 985.368 219.307 993.335 214.901C1003.18 209.615 1033.45 200.901 1044.42 199.628C1070.85 196.495 1094.84 203.446 1121.27 189.838C1134.67 182.985 1148.17 158.998 1157.73 147.151C1177.04 123.459 1214.81 114.648 1241.24 103.487C1258.2 96.3404 1297.19 105.739 1311.35 117.487C1319.78 124.536 1324.47 136.383 1332.34 143.823C1340.68 151.656 1351.46 153.907 1361.12 159.292C1386.61 173.684 1389.98 194.145 1408.26 214.02C1415.66 222.048 1423.35 225.181 1431.32 231.74C1462.15 256.804 1462.81 305.07 1491.86 331.015C1500.11 338.358 1527.2 359.699 1536.85 361.07C1579.03 367.336 1604.8 337.965 1621.58 302.133C1631.14 281.573 1631.42 247.797 1649.88 233.209C1680.34 209.223 1718.77 208.145 1753.92 219.796C1782.97 229.39 1797.69 245.153 1831.06 233.992C1850.74 227.433 1858.99 218.132 1873.23 204.719C1885.23 193.46 1901.07 189.936 1916.81 192.188V201.488C1914.28 200.02 1911.29 200.411 1908.47 200.705C1883.73 202.957 1877.82 221.46 1857.39 231.838C1828.71 246.523 1806.12 248.678 1775.66 238.888C1731.05 224.594 1700.68 212.845 1658.04 243.587C1638.07 257.979 1636.29 288.426 1625.7 310.062C1606.21 349.909 1581.09 376.441 1534.23 370.273C1516.89 368.022 1473.96 334.245 1465.06 318.091C1452.68 295.573 1443.78 271.782 1430.38 248.481C1427.1 242.803 1430.19 242.999 1423.16 238.397C1416.13 233.796 1408.26 231.74 1401.51 225.181C1381.92 206.09 1380.52 181.32 1356.8 167.516C1348.09 162.425 1338.06 159.977 1329.81 153.907C1317.06 144.509 1312.66 130.998 1296.54 124.634C1275.54 116.312 1248.64 116.41 1226.62 117.977C1217.53 118.662 1178.16 141.866 1169.82 148.719C1151.45 163.894 1138.98 189.152 1116.12 198.453C1083.97 211.474 1054.26 208.048 1021.64 217.74C1015.92 219.405 1005.71 222.342 1000.74 224.691C993.241 228.314 984.15 238.203 975.715 243.098C959.782 252.301 933.632 265.811 916.574 271.392C906.827 274.622 895.673 276.188 886.301 279.713C877.865 282.944 871.117 289.014 863.15 292.637C838.594 303.798 804.103 305.755 780.203 291.657C769.706 285.489 756.678 263.657 756.771 251.125C757.053 202.369 817.131 187.488 848.623 165.068C880.864 142.159 844.405 121.598 844.687 94.1855C844.874 78.6189 860.339 53.3609 870.93 42.6895C881.521 32.018 894.642 27.3178 905.982 18.9961C926.04 4.31071 921.448 -14.9759 929.414 -35.4375C931.57 -40.9199 935.131 -45.8154 937.381 -51.2979C944.691 -69.0184 946.847 -88.1103 951.439 -106.712H967.467L967.561 -106.81ZM404.925 -106.81C402.019 -101.033 396.677 -94.2781 394.896 -88.1104C393.209 -82.3342 394.146 -76.6558 393.209 -71.3691C386.554 -33.9701 367.341 25.262 326.852 34.7588C298.265 41.4162 266.585 39.8495 237.53 42.5908C208.475 45.3325 178.202 87.0395 154.864 106.62C141.18 118.075 123.841 131.977 105.939 134.522C85.4136 137.459 58.8895 127.571 40.0508 138.047C21.2119 148.523 10.4332 168.69 -9.99902 177.208V162.816C-9.99902 161.935 -1.75059 156.845 -0.250977 155.376C11.1835 144.802 15.495 135.893 30.0225 126.69C63.2013 105.641 90.4753 130.214 123.279 112.689C160.113 93.0108 196.291 35.8364 237.53 34.2695C259.087 33.3884 280.644 32.3109 302.295 29.4717C320.665 27.122 334.349 25.6539 347.283 10.5771C357.687 -1.56274 368.746 -26.1367 373.714 -41.6055C378.681 -57.0742 379.618 -77.1453 384.586 -91.5371C386.554 -97.2154 390.022 -102.012 393.49 -106.81H404.925Z" fill="#FAF9F5"/>
</g>
<defs>
<clipPath id="clip0_2387_5653">
<rect width="1917" height="822" fill="white"/>
</clipPath>
</defs>
</svg>
